<?xml version="1.0" encoding="UTF-8"?>
<svg id="Layer_1" xmlns="http://www.w3.org/2000/svg" version="1.1" viewBox="0 0 836.673 525.965">
  <!-- Generator: Adobe Illustrator 29.3.1, SVG Export Plug-In . SVG Version: 2.1.0 Build 151)  -->
  <defs>
    <style>
      .st0, .st1 {
        fill: #db0d15;
      }

      .st1 {
        fill-rule: evenodd;
      }
    </style>
  </defs>
  <polygon class="st1" points="70.304 408.415 80.971 408.415 80.971 440.6 89.99 440.6 89.99 408.415 100.836 408.415 100.836 400.872 70.304 400.872 70.304 408.415"/>
  <path class="st1" d="M106.267,430.343c-3.125,0-5.304,2.298-5.304,5.481,0,3.123,2.179,5.423,5.244,5.423,3.185,0,5.304-2.299,5.304-5.423,0-3.242-2.119-5.481-5.244-5.481"/>
  <path class="st1" d="M137.391,441.189c4.835,0,8.548-.884,10.197-1.71l-1.355-7.014c-1.766.707-4.774,1.297-7.485,1.297-8.016,0-12.731-5.012-12.731-12.968,0-8.84,5.54-13.144,12.671-13.144,3.184,0,5.719.707,7.545,1.474l1.828-7.134c-1.593-.824-5.127-1.766-9.785-1.766-12.026,0-21.693,7.545-21.693,21.102,0,11.317,7.076,19.863,20.808,19.863"/>
  <path class="st1" d="M159.032,430.343c-3.125,0-5.304,2.298-5.304,5.481,0,3.123,2.179,5.423,5.244,5.423,3.185,0,5.304-2.299,5.304-5.423,0-3.242-2.119-5.481-5.244-5.481"/>
  <path class="st1" d="M199.357,440.954l-2.239,4.891c3.302.354,4.658,1.003,4.658,2.241,0,1.001-.943,1.414-2.122,1.414-1.061,0-2.418-.354-3.301-.826l-1.18,3.655c1.354.765,3.299,1.12,5.07,1.12,3.359,0,7.014-1.355,7.014-5.423,0-2.769-2.005-4.303-4.305-4.833l1.003-2.004c4.48-.058,7.9-.944,9.489-1.71l-1.354-7.014c-1.768.707-4.776,1.297-7.485,1.297-8.017,0-12.733-5.012-12.733-12.968,0-8.842,5.54-13.145,12.672-13.145,3.182,0,5.717.709,7.545,1.474l1.827-7.132c-1.593-.824-5.127-1.768-9.785-1.768-12.024,0-21.691,7.545-21.691,21.103,0,10.196,5.717,18.154,16.917,19.628"/>
  <polygon class="st1" points="245.872 433.231 229.545 433.231 229.545 423.801 244.163 423.801 244.163 416.492 229.545 416.492 229.545 408.239 245.047 408.239 245.047 400.871 220.526 400.871 220.526 440.6 245.872 440.6 245.872 433.231"/>
  <path class="st1" d="M277.298,400.872l-5.07,16.976c-1.353,4.539-2.595,9.253-3.595,14.029h-.177c-.942-4.952-2.183-9.49-3.538-14.206l-4.833-16.798h-9.845l12.732,39.728h10.493l13.379-39.728h-9.547Z"/>
  <path class="st1" d="M319.042,429.4c-1.003-3.655-2.535-6.307-5.306-7.427v-.177c3.417-1.238,7.012-4.716,7.012-9.785,0-3.655-1.295-6.426-3.651-8.311-2.831-2.241-6.957-3.125-12.849-3.125-4.774,0-9.081.354-11.967.826v39.197h8.899v-15.62h2.712c3.655.06,5.366,1.415,6.426,6.367,1.18,4.891,2.122,8.133,2.769,9.253h9.195c-.764-1.532-2.002-6.718-3.238-11.198M304.717,418.496h-3.538v-10.963c.65-.119,1.888-.296,4.068-.296,4.128.058,6.603,1.887,6.603,5.54,0,3.479-2.652,5.719-7.132,5.719"/>
  <polygon class="st1" points="353.767 433.231 337.44 433.231 337.44 423.801 352.057 423.801 352.057 416.492 337.44 416.492 337.44 408.239 352.941 408.239 352.941 400.871 328.421 400.871 328.421 440.6 353.767 440.6 353.767 433.231"/>
  <path class="st1" d="M361.086,430.873c-.826,5.364-2.418,11.494-4.245,16.74l5.954-.53c2.827-4.597,5.48-10.787,7.425-16.8l-9.134.59Z"/>
  <path class="st1" d="M403.414,443.194l1.12-2.418c7.779-1.355,11.434-6.247,11.434-11.905,0-5.6-3.302-9.255-10.314-11.848-5.131-1.945-7.37-3.065-7.37-5.6,0-2.062,1.889-3.83,5.777-3.83s6.72,1.12,8.312,1.885l2.002-7.249c-2.356-1.061-5.657-2.004-10.135-2.004-9.373,0-15.034,5.185-15.034,11.965,0,5.777,4.307,9.43,10.906,11.73,4.774,1.71,6.661,3.123,6.661,5.6,0,2.592-2.183,4.302-6.307,4.302-3.832,0-7.544-1.237-9.962-2.475l-1.828,7.427c2.184,1.238,6.543,2.358,11.023,2.416l-2.122,4.657c3.242.354,4.658,1.001,4.658,2.239,0,1.001-.943,1.414-2.122,1.414-1.12,0-2.475-.353-3.301-.824l-1.18,3.653c1.357.767,3.242,1.121,5.07,1.121,3.359,0,7.014-1.355,7.014-5.423,0-2.771-2.062-4.303-4.301-4.833"/>
  <polygon class="st1" points="432.247 423.801 446.863 423.801 446.863 416.491 432.247 416.491 432.247 408.239 447.749 408.239 447.749 400.873 423.228 400.873 423.228 440.599 448.574 440.599 448.574 433.231 432.247 433.231 432.247 423.801"/>
  <polygon class="st1" points="488.664 400.872 479.705 400.872 479.705 416.138 464.911 416.138 464.911 400.872 455.89 400.872 455.89 440.6 464.911 440.6 464.911 423.977 479.705 423.977 479.705 440.6 488.664 440.6 488.664 400.872"/>
  <rect class="st0" x="497.69" y="400.872" width="9.019" height="39.728"/>
  <path class="st1" d="M498.163,394.565c0,2.121,1.766,4.007,4.124,4.007,2.239,0,3.951-1.887,3.951-4.007,0-2.298-1.711-4.068-3.951-4.068-2.296,0-4.124,1.77-4.124,4.068"/>
  <path class="st1" d="M533.711,431.346c1.18,4.891,2.122,8.133,2.769,9.253h9.195c-.765-1.532-2.002-6.718-3.238-11.198-1.003-3.655-2.535-6.307-5.306-7.427v-.177c3.417-1.238,7.012-4.716,7.012-9.785,0-3.655-1.295-6.426-3.651-8.311-2.831-2.241-6.957-3.125-12.849-3.125-4.774,0-9.081.354-11.967.826v39.197h8.899v-15.62h2.712c3.655.06,5.366,1.415,6.426,6.367M524.573,418.496v-10.963c.65-.119,1.888-.296,4.068-.296,4.128.058,6.603,1.887,6.603,5.54,0,3.479-2.652,5.719-7.132,5.719h-3.538Z"/>
  <path class="st1" d="M571.856,407.65c3.182,0,5.717.709,7.545,1.474l1.827-7.132c-1.593-.824-5.127-1.768-9.785-1.768-12.024,0-21.692,7.545-21.692,21.102,0,11.317,7.076,19.863,20.807,19.863,4.835,0,8.546-.884,10.196-1.708l-1.353-7.014c-1.768.707-4.776,1.295-7.485,1.295-8.018,0-12.733-5.01-12.733-12.966,0-8.842,5.54-13.145,12.672-13.145"/>
  <path class="st1" d="M588.31,394.565c0,2.121,1.768,4.007,4.124,4.007,2.241,0,3.951-1.887,3.951-4.007,0-2.298-1.71-4.068-3.951-4.068-2.296,0-4.124,1.77-4.124,4.068"/>
  <rect class="st0" x="587.836" y="400.872" width="9.021" height="39.728"/>
  <polygon class="st1" points="630.637 433.055 614.839 433.055 614.839 400.872 605.82 400.872 605.82 440.6 630.637 440.6 630.637 433.055"/>
  <rect class="st0" x="637.126" y="400.872" width="9.019" height="39.728"/>
  <path class="st1" d="M641.722,398.572c2.239,0,3.951-1.887,3.951-4.007,0-2.298-1.711-4.068-3.951-4.068-2.298,0-4.124,1.77-4.124,4.068,0,2.121,1.766,4.007,4.124,4.007"/>
  <path class="st1" d="M673.792,417.789l13.145-16.917h-11.023l-9.018,13.202c-.884,1.417-1.827,2.829-2.712,4.363h-.177v-17.565h-8.901v39.728h8.901v-12.968l3.421-4.185,9.724,17.153h10.491l-13.852-22.811Z"/>
  <path class="st1" d="M727.094,400.872l-5.07,16.976c-1.353,4.539-2.595,9.253-3.595,14.029h-.177c-.942-4.952-2.183-9.49-3.538-14.206l-4.831-16.798h-9.847l12.732,39.728h10.493l13.379-39.728h-9.547Z"/>
  <polygon class="st1" points="751.092 423.801 765.709 423.801 765.709 416.491 751.092 416.491 751.092 408.239 766.593 408.239 766.593 400.873 742.073 400.873 742.073 440.599 767.419 440.599 767.419 433.231 751.092 433.231 751.092 423.801"/>
  <path class="st1" d="M19.566,471.087c2.239,0,3.951-1.887,3.951-4.007,0-2.3-1.711-4.068-3.951-4.068-2.298,0-4.124,1.768-4.124,4.068,0,2.121,1.766,4.007,4.124,4.007"/>
  <rect class="st0" x="14.968" y="473.386" width="9.019" height="39.728"/>
  <path class="st1" d="M64.78,473.386h-11.021l-9.017,13.204c-.886,1.414-1.828,2.829-2.712,4.362h-.179v-17.566h-8.899v39.728h8.899v-12.968l3.421-4.185,9.724,17.153h10.491l-13.852-22.811,13.145-16.917Z"/>
  <polygon class="st1" points="79.349 473.386 70.33 473.386 70.33 513.114 95.147 513.114 95.147 505.571 79.349 505.571 79.349 473.386"/>
  <rect class="st0" x="101.637" y="473.386" width="9.019" height="39.728"/>
  <path class="st1" d="M110.185,467.079c0-2.298-1.71-4.068-3.951-4.068-2.296,0-4.124,1.77-4.124,4.068,0,2.122,1.768,4.007,4.124,4.007,2.241,0,3.951-1.885,3.951-4.007"/>
  <path class="st1" d="M148.679,473.386l-4.241,13.204c-1.299,4.42-2.652,9.666-3.774,14.263h-.177c-.886-4.656-2.122-9.607-3.359-14.205l-3.89-13.262h-11.967l-2.535,39.728h8.312l.707-15.089c.296-4.952.473-11.083.709-16.446h.117c.942,5.185,2.299,10.846,3.595,15.502l4.245,15.386h7.016l4.831-15.503c1.532-4.656,3.182-10.316,4.42-15.385h.177c0,5.775.179,11.553.356,16.327l.586,15.208h8.785l-2.183-39.728h-11.73Z"/>
  <path class="st1" d="M212.179,477.336c-3.834-2.888-8.725-4.243-16.27-4.243-4.537,0-8.839.294-12.143.824v39.02c2.241.296,5.54.59,10.197.59,7.779,0,14.148-1.651,18.333-5.127,3.832-3.242,6.603-8.488,6.603-16.091,0-7.014-2.595-11.907-6.72-14.972M195.908,506.512c-1.12,0-2.358,0-3.122-.177v-25.993c.764-.177,2.062-.354,4.064-.354,7.722,0,12.557,4.362,12.497,12.614,0,9.49-5.304,13.971-13.439,13.911"/>
  <polygon class="st1" points="234.999 496.316 249.617 496.316 249.617 489.006 234.999 489.006 234.999 480.754 250.501 480.754 250.501 473.386 225.98 473.386 225.98 513.114 251.326 513.114 251.326 505.746 234.999 505.746 234.999 496.316"/>
  <path class="st1" d="M277.095,466.255c-2.418,0-3.299-1.415-3.478-2.712h-4.714c.057,4.303,2.415,7.428,8.252,7.428,5.6,0,8.132-3.125,8.252-7.428h-4.597c-.294,1.415-1.24,2.712-3.715,2.712"/>
  <path class="st1" d="M277.038,497.377h6.13v8.311c-.707.353-2.358.59-4.424.59-7.366,0-12.493-4.835-12.493-13.028,0-8.605,5.657-12.848,13.145-12.848,4.358,0,7.07.765,9.251,1.708l1.887-7.191c-1.945-.943-5.894-1.945-11.021-1.945-13.027,0-22.634,7.545-22.694,20.747-.058,5.836,1.943,11.023,5.6,14.442,3.655,3.538,8.899,5.363,16.152,5.363,5.244,0,10.49-1.295,13.262-2.239v-20.924h-14.795v7.015Z"/>
  <path class="st1" d="M308.581,467.079c0-2.298-1.71-4.068-3.951-4.068-2.296,0-4.124,1.77-4.124,4.068,0,2.122,1.768,4.007,4.124,4.007,2.241,0,3.951-1.885,3.951-4.007"/>
  <rect class="st0" x="300.034" y="473.386" width="9.019" height="39.728"/>
  <path class="st1" d="M333.458,489.537c-5.131-1.945-7.37-3.065-7.37-5.6,0-2.062,1.887-3.83,5.777-3.83s6.72,1.12,8.312,1.885l2.002-7.249c-2.358-1.061-5.657-2.004-10.137-2.004-9.372,0-15.032,5.185-15.032,11.965,0,5.777,4.305,9.43,10.904,11.73,4.776,1.71,6.663,3.123,6.663,5.598,0,2.594-2.183,4.303-6.307,4.303-3.832,0-7.545-1.238-9.962-2.475l-1.828,7.427c2.183,1.237,6.543,2.358,11.021,2.416l-2.122,4.657c3.244.353,4.658,1.001,4.658,2.239,0,1.001-.942,1.414-2.122,1.414-1.12,0-2.475-.353-3.299-.826l-1.18,3.655c1.357.767,3.242,1.121,5.069,1.121,3.361,0,7.015-1.357,7.015-5.425,0-2.769-2.062-4.301-4.301-4.833l1.12-2.416c7.779-1.355,11.434-6.248,11.434-11.905,0-5.6-3.302-9.255-10.314-11.849"/>
  <rect class="st0" x="351.033" y="473.386" width="9.019" height="39.728"/>
  <path class="st1" d="M355.629,471.087c2.239,0,3.951-1.887,3.951-4.007,0-2.3-1.711-4.068-3.951-4.068-2.298,0-4.124,1.768-4.124,4.068,0,2.121,1.766,4.007,4.124,4.007"/>
  <path class="st1" d="M400.844,473.386h-11.023l-9.016,13.204c-.886,1.414-1.828,2.829-2.712,4.362h-.179v-17.566h-8.899v39.728h8.899v-12.968l3.421-4.185,9.724,17.153h10.491l-13.852-22.811,13.145-16.917Z"/>
  <polygon class="st1" points="415.413 473.386 406.393 473.386 406.393 513.114 431.21 513.114 431.21 505.571 415.413 505.571 415.413 473.386"/>
  <path class="st1" d="M446.248,467.079c0-2.298-1.71-4.068-3.951-4.068-2.296,0-4.124,1.77-4.124,4.068,0,2.122,1.768,4.007,4.124,4.007,2.241,0,3.951-1.885,3.951-4.007"/>
  <rect class="st0" x="437.701" y="473.386" width="9.019" height="39.728"/>
  <path class="st1" d="M474.13,466.255c-2.418,0-3.299-1.415-3.478-2.712h-4.714c.057,4.303,2.415,7.428,8.252,7.428,5.6,0,8.132-3.125,8.252-7.428h-4.597c-.294,1.415-1.24,2.712-3.715,2.712"/>
  <path class="st1" d="M474.073,497.377h6.13v8.311c-.707.353-2.358.59-4.424.59-7.366,0-12.493-4.835-12.493-13.028,0-8.605,5.657-12.848,13.145-12.848,4.358,0,7.072.765,9.251,1.708l1.887-7.191c-1.943-.943-5.894-1.945-11.021-1.945-13.027,0-22.634,7.545-22.694,20.747-.057,5.836,1.945,11.023,5.6,14.442,3.655,3.538,8.899,5.363,16.152,5.363,5.244,0,10.49-1.295,13.262-2.239v-20.924h-14.795v7.015Z"/>
  <rect class="st0" x="497.071" y="473.386" width="9.019" height="39.728"/>
  <path class="st1" d="M505.619,467.079c0-2.298-1.71-4.068-3.951-4.068-2.296,0-4.124,1.77-4.124,4.068,0,2.122,1.768,4.007,4.124,4.007,2.241,0,3.951-1.885,3.951-4.007"/>
  <path class="st1" d="M549.717,491.719v-.12c4.48-1.649,6.543-4.95,6.543-8.486,0-3.596-2.005-6.309-4.776-7.781-2.886-1.71-6.247-2.239-11.728-2.239-4.48,0-9.255.353-11.613.824v39.021c2.005.294,5.304.588,9.728.588,7.896,0,12.729-1.297,15.618-3.595,2.475-2.004,4.124-4.833,4.124-8.429,0-5.127-3.359-8.546-7.896-9.783M537.043,479.871c.767-.119,1.887-.236,3.832-.236,4.068,0,6.364,1.591,6.364,4.597,0,2.948-2.532,4.891-7.249,4.891h-2.946v-9.253ZM540.522,506.866c-1.533,0-2.595,0-3.48-.119v-11.198h3.067c4.477,0,8.075,1.591,8.075,5.6,0,4.185-3.598,5.717-7.662,5.717"/>
  <path class="st1" d="M573.951,473.386l-12.143,39.728h9.312l2.831-10.197h11.374l3.068,10.197h9.664l-12.318-39.728h-11.788ZM575.248,496.197l2.358-8.427c.647-2.3,1.237-5.306,1.827-7.662h.119c.59,2.356,1.297,5.304,2.004,7.662l2.475,8.427h-8.782Z"/>
  <path class="st1" d="M636.38,473.386h-11.023l-9.016,13.204c-.886,1.414-1.828,2.829-2.712,4.362h-.179v-17.566h-8.899v39.728h8.899v-12.968l3.421-4.185,9.724,17.153h10.491l-13.852-22.811,13.145-16.917Z"/>
  <path class="st1" d="M651.952,473.386l-12.143,39.728h9.312l2.831-10.197h11.377l3.065,10.197h9.662l-12.316-39.728h-11.788ZM653.249,496.197l2.358-8.427c.647-2.3,1.237-5.306,1.827-7.662h.117c.59,2.356,1.299,5.304,2.002,7.662l2.478,8.427h-8.782Z"/>
  <path class="st1" d="M707.194,484.998c0,5.953.177,11.317.765,16.565h-.175c-1.77-4.48-4.128-9.432-6.484-13.617l-8.254-14.561h-10.491v39.73h8.252v-11.965c0-6.486-.117-12.084-.353-17.33l.175-.06c1.945,4.658,4.541,9.785,6.897,14.029l8.488,15.326h9.432v-39.73h-8.252v11.613Z"/>
  <polygon class="st1" points="733.433 473.386 724.413 473.386 724.413 513.114 749.23 513.114 749.23 505.571 733.433 505.571 733.433 473.386"/>
  <rect class="st0" x="755.72" y="473.386" width="9.019" height="39.728"/>
  <path class="st1" d="M792.214,470.97c5.6,0,8.132-3.123,8.252-7.428h-4.597c-.296,1.417-1.24,2.712-3.715,2.712-2.418,0-3.3-1.416-3.478-2.712h-4.714c.057,4.305,2.415,7.428,8.252,7.428"/>
  <path class="st1" d="M792.096,497.377h6.13v8.311c-.707.353-2.358.59-4.422.59-7.368,0-12.495-4.835-12.495-13.028,0-8.605,5.657-12.848,13.145-12.848,4.358,0,7.072.765,9.251,1.708l1.887-7.191c-1.943-.943-5.894-1.945-11.021-1.945-13.027,0-22.634,7.545-22.694,20.747-.057,5.836,1.945,11.023,5.6,14.442,3.655,3.538,8.899,5.363,16.152,5.363,5.244,0,10.49-1.295,13.262-2.239v-20.924h-14.795v7.015Z"/>
  <rect class="st0" x="815.092" y="473.386" width="9.019" height="39.728"/>
  <path class="st0" d="M546.11,300.193h-6.178c-1.938,0-3.825.714-5.338,2.02l-1.77,1.536c-.928.797-.399,2.399.783,2.399h6.176c1.945,0,3.832-.712,5.343-2.02l1.772-1.531c.928-.808.399-2.404-.788-2.404"/>
  <path class="st0" d="M553.757,291.092l-6.162.434c-1.935.129-3.766.967-5.178,2.379l-1.671,1.655c-.863.859-.22,2.415.948,2.34l6.172-.429c1.94-.14,3.766-.978,5.182-2.39l1.662-1.655c.868-.854.23-2.42-.953-2.335"/>
  <path class="st0" d="M560.757,281.477l-6.126.868c-1.92.264-3.687,1.231-5.005,2.737l-1.536,1.761c-.803.918-.06,2.432,1.107,2.268l6.128-.861c1.92-.269,3.68-1.233,5.003-2.739l1.541-1.775c.799-.912.06-2.424-1.113-2.259"/>
  <path class="st0" d="M567.059,271.403l-6.048,1.277c-1.894.404-3.591,1.495-4.798,3.086l-1.412,1.871c-.739.973.104,2.429,1.261,2.175l6.052-1.268c1.892-.418,3.587-1.506,4.79-3.091l1.421-1.871c.733-.973-.11-2.427-1.267-2.179"/>
  <path class="st0" d="M572.641,260.911l-5.942,1.695c-1.86.539-3.481,1.74-4.571,3.412l-1.286,1.959c-.659,1.026.284,2.418,1.426,2.094l5.931-1.701c1.873-.533,3.483-1.74,4.581-3.412l1.286-1.965c.664-1.026-.284-2.418-1.426-2.083"/>
  <path class="st0" d="M577.486,250.053l-5.802,2.11c-1.832.657-3.354,1.975-4.33,3.72l-1.137,2.044c-.595,1.067.443,2.393,1.559,1.981l5.798-2.11c1.83-.659,3.362-1.97,4.332-3.715l1.146-2.052c.588-1.061-.448-2.386-1.566-1.979"/>
  <path class="st0" d="M581.556,238.878l-5.641,2.514c-1.777.787-3.21,2.204-4.057,4.02l-1.003,2.114c-.508,1.107.618,2.353,1.695,1.874l5.648-2.523c1.772-.783,3.198-2.2,4.05-4.004l1.003-2.124c.521-1.098-.613-2.351-1.695-1.871"/>
  <path class="st0" d="M584.839,227.452l-5.458,2.898c-1.715.918-3.033,2.427-3.765,4.294l-.843,2.188c-.446,1.127.772,2.299,1.814,1.74l5.464-2.897c1.715-.907,3.038-2.424,3.766-4.294l.838-2.183c.445-1.137-.778-2.305-1.816-1.747"/>
  <path class="st0" d="M587.313,215.833l-5.232,3.267c-1.653,1.027-2.87,2.633-3.464,4.542l-.693,2.239c-.349,1.162.937,2.245,1.94,1.621l5.244-3.277c1.64-1.026,2.866-2.627,3.451-4.548l.689-2.234c.363-1.168-.928-2.243-1.936-1.61"/>
  <path class="st0" d="M588.975,204.059l-4.998,3.63c-1.571,1.143-2.68,2.822-3.134,4.773l-.533,2.284c-.275,1.182,1.088,2.165,2.044,1.467l5-3.63c1.566-1.137,2.679-2.819,3.129-4.764l.539-2.284c.269-1.187-1.088-2.179-2.046-1.476"/>
  <path class="st0" d="M589.808,192.199l-4.734,3.97c-1.493,1.251-2.47,3.003-2.79,4.982l-.37,2.308c-.198,1.203,1.233,2.096,2.153,1.332l4.723-3.965c1.486-1.256,2.475-3.008,2.794-4.982l.365-2.319c.2-1.198-1.226-2.085-2.14-1.327"/>
  <path class="st0" d="M589.808,180.31l-4.441,4.289c-1.4,1.346-2.259,3.173-2.438,5.168l-.209,2.333c-.106,1.217,1.376,1.998,2.234,1.176l4.445-4.293c1.403-1.346,2.261-3.173,2.431-5.157l.209-2.333c.12-1.217-1.376-2.005-2.23-1.183"/>
  <path class="st0" d="M584.849,173.035c-1.297,1.451-2.025,3.327-2.071,5.32l-.039,2.351c-.025,1.215,1.508,1.894,2.305,1.012l4.137-4.588c1.292-1.442,2.025-3.316,2.064-5.317l.046-2.339c.028-1.228-1.518-1.906-2.31-1.028l-4.131,4.588Z"/>
  <path class="st0" d="M583.533,161.544c-1.198,1.531-1.796,3.462-1.703,5.446l.121,2.349c.064,1.222,1.651,1.795,2.379.847l3.802-4.856c1.192-1.538,1.796-3.453,1.697-5.451l-.115-2.349c-.071-1.217-1.642-1.784-2.376-.847l-3.805,4.861Z"/>
  <path class="st0" d="M580.099,155.724l.28,2.33c.149,1.207,1.77,1.671,2.436.682l3.456-5.116c1.077-1.612,1.547-3.566,1.308-5.55l-.285-2.328c-.145-1.212-1.761-1.672-2.425-.684l-3.462,5.111c-1.088,1.607-1.547,3.566-1.307,5.556"/>
  <path class="st0" d="M577.58,144.598l.445,2.305c.228,1.196,1.881,1.545,2.475.517l3.083-5.341c.967-1.685,1.297-3.68.923-5.634l-.445-2.299c-.225-1.203-1.881-1.55-2.47-.519l-3.083,5.341c-.974,1.687-1.304,3.676-.928,5.63"/>
  <path class="st0" d="M574.303,133.687l.602,2.264c.299,1.176,1.981,1.401,2.494.349l2.709-5.561c.843-1.74,1.035-3.75.524-5.68l-.602-2.269c-.305-1.168-1.988-1.401-2.5-.34l-2.716,5.552c-.847,1.745-1.031,3.754-.512,5.685"/>
  <path class="st0" d="M570.257,123.02l.762,2.215c.39,1.162,2.066,1.272,2.516.179l2.315-5.729c.723-1.802.767-3.811.119-5.705l-.764-2.22c-.379-1.159-2.066-1.268-2.514-.17l-2.315,5.726c-.728,1.805-.772,3.814-.119,5.705"/>
  <path class="st0" d="M565.482,112.662l.903,2.163c.478,1.123,2.165,1.113,2.519-.009l1.92-5.88c.599-1.841.508-3.846-.269-5.696l-.919-2.154c-.473-1.132-2.154-1.121-2.523,0l-1.906,5.88c-.599,1.841-.505,3.855.275,5.696"/>
  <path class="st0" d="M561.052,104.767c.549,1.086,2.234.967,2.514-.19l1.497-5.99c.47-1.88.234-3.885-.668-5.666l-1.059-2.089c-.553-1.088-2.234-.967-2.523.179l-1.497,5.995c-.459,1.885-.234,3.88.668,5.66l1.068,2.099Z"/>
  <path class="st0" d="M555.02,95.097c.629,1.042,2.299.803,2.505-.363l1.072-6.08c.335-1.915-.05-3.89-1.066-5.611l-1.205-2.014c-.627-1.036-2.289-.803-2.498.363l-1.068,6.085c-.344,1.904.035,3.885,1.058,5.605l1.203,2.014Z"/>
  <path class="st0" d="M548.334,85.866c.7,1.003,2.351.648,2.464-.528l.65-6.14c.204-1.94-.305-3.88-1.453-5.515l-1.346-1.931c-.684-.996-2.335-.647-2.459.539l-.65,6.14c-.204,1.924.315,3.875,1.458,5.517l1.336,1.919Z"/>
  <path class="st0" d="M541.021,77.128c.765.948,2.384.48,2.425-.702l.209-6.176c.08-1.933-.574-3.844-1.825-5.4l-1.472-1.821c-.769-.951-2.385-.487-2.425.7l-.214,6.174c-.071,1.938.574,3.839,1.841,5.4l1.462,1.825Z"/>
  <path class="st0" d="M531.518,67.21l1.596,1.72c.829.888,2.409.314,2.363-.873l-.209-6.179c-.069-1.929-.852-3.793-2.209-5.262l-1.587-1.72c-.838-.888-2.415-.308-2.385.873l.216,6.179c.08,1.935.852,3.795,2.215,5.262"/>
  <path class="st0" d="M522.942,59.689l1.715,1.607c.893.838,2.42.138,2.301-1.038l-.645-6.139c-.204-1.929-1.107-3.731-2.569-5.092l-1.717-1.61c-.882-.824-2.424-.14-2.299,1.036l.643,6.14c.211,1.924,1.113,3.733,2.571,5.095"/>
  <path class="st0" d="M510.943,47.885c.34,1.915,1.366,3.641,2.912,4.907l1.816,1.477c.955.767,2.441-.021,2.236-1.192l-1.068-6.085c-.344-1.91-1.371-3.641-2.918-4.902l-1.827-1.481c-.941-.769-2.429.025-2.22,1.198l1.068,6.078Z"/>
  <path class="st0" d="M501.074,41.85c.464,1.876,1.623,3.536,3.253,4.684l1.91,1.352c1.008.709,2.431-.195,2.142-1.341l-1.497-5.995c-.464-1.874-1.623-3.536-3.253-4.693l-1.912-1.346c-1.003-.698-2.424.19-2.144,1.346l1.501,5.993Z"/>
  <path class="st0" d="M490.802,36.509c.599,1.851,1.857,3.412,3.568,4.449l2.005,1.217c1.042.632,2.404-.363,2.039-1.492l-1.91-5.875c-.599-1.844-1.862-3.416-3.572-4.441l-2.007-1.217c-1.042-.634-2.402.358-2.036,1.486l1.912,5.873Z"/>
  <path class="st0" d="M480.185,31.912c.73,1.8,2.09,3.281,3.876,4.193l2.076,1.067c1.088.554,2.385-.533,1.936-1.63l-2.321-5.721c-.728-1.805-2.085-3.286-3.867-4.193l-2.094-1.074c-1.082-.553-2.365.535-1.922,1.632l2.315,5.726Z"/>
  <path class="st0" d="M469.265,28.052c.848,1.75,2.321,3.127,4.156,3.908l2.16.934c1.123.47,2.33-.698,1.805-1.761l-2.707-5.55c-.843-1.745-2.31-3.12-4.156-3.91l-2.156-.927c-1.121-.478-2.324.698-1.811,1.756l2.709,5.55Z"/>
  <path class="st0" d="M458.109,24.98c.969,1.676,2.53,2.953,4.42,3.605l2.215.769c1.159.404,2.276-.852,1.688-1.881l-3.095-5.345c-.973-1.681-2.528-2.953-4.424-3.607l-2.211-.772c-1.148-.399-2.28.854-1.679,1.885l3.086,5.347Z"/>
  <path class="st0" d="M446.765,22.685c1.088,1.602,2.73,2.762,4.663,3.292l2.261.608c1.173.326,2.215-1.003,1.552-1.998l-3.462-5.118c-1.077-1.605-2.73-2.764-4.656-3.285l-2.264-.625c-1.183-.308-2.206,1.024-1.547,2.002l3.453,5.125Z"/>
  <path class="st0" d="M435.285,21.174c1.198,1.531,2.914,2.58,4.884,2.964l2.294.448c1.198.244,2.137-1.159,1.407-2.096l-3.805-4.861c-1.194-1.536-2.914-2.574-4.879-2.959l-2.296-.459c-1.196-.228-2.135,1.167-1.401,2.096l3.797,4.867Z"/>
  <path class="st0" d="M423.731,20.481c1.302,1.446,3.088,2.36,5.084,2.618l2.314.28c1.217.158,2.055-1.302,1.263-2.184l-4.131-4.588c-1.307-1.442-3.093-2.374-5.079-2.613l-2.324-.289c-1.217-.151-2.044,1.3-1.261,2.184l4.135,4.592Z"/>
  <path class="st0" d="M412.167,20.596c1.396,1.346,3.242,2.14,5.244,2.245l2.333.135c1.222.064,1.952-1.447,1.109-2.264l-4.45-4.3c-1.398-1.346-3.244-2.14-5.249-2.248l-2.34-.135c-1.217-.066-1.949,1.456-1.097,2.273l4.45,4.294Z"/>
  <path class="st0" d="M400.627,21.513c1.483,1.253,3.382,1.915,5.382,1.874l2.346-.03c1.217-.018,1.851-1.584.939-2.333l-4.73-3.979c-1.492-1.242-3.387-1.904-5.393-1.874l-2.346.035c-1.217.014-1.846,1.575-.934,2.337l4.736,3.97Z"/>
  <path class="st0" d="M389.179,23.235c1.566,1.137,3.517,1.671,5.506,1.495l2.34-.193c1.214-.105,1.726-1.711.774-2.404l-5-3.621c-1.577-1.152-3.518-1.676-5.508-1.511l-2.335.193c-1.222.106-1.731,1.711-.774,2.411l4.996,3.63Z"/>
  <path class="st0" d="M372.639,22.476l5.239,3.267c1.651,1.038,3.626,1.426,5.598,1.118l2.319-.36c1.207-.195,1.602-1.825.604-2.459l-5.244-3.267c-1.646-1.026-3.621-1.426-5.596-1.113l-2.321.356c-1.198.193-1.607,1.825-.599,2.457"/>
  <path class="st0" d="M361.323,26.146l5.469,2.893c1.701.918,3.701,1.171,5.658.728l2.284-.524c1.192-.268,1.472-1.919.434-2.493l-5.458-2.888c-1.722-.918-3.717-1.173-5.667-.733l-2.284.538c-1.189.26-1.477,1.926-.436,2.478"/>
  <path class="st0" d="M350.298,30.6l5.643,2.509c1.772.794,3.788.904,5.697.324l2.255-.679c1.167-.358,1.327-2.03.25-2.523l-5.648-2.498c-1.772-.794-3.782-.904-5.697-.329l-2.245.679c-1.167.36-1.338,2.029-.255,2.517"/>
  <path class="st0" d="M339.613,35.806l5.802,2.105c1.819.67,3.851.643,5.706-.074l2.195-.833c1.143-.434,1.194-2.114.08-2.525l-5.806-2.114c-1.821-.659-3.843-.632-5.703.08l-2.195.833c-1.137.434-1.189,2.121-.08,2.528"/>
  <path class="st0" d="M329.306,41.741l5.951,1.706c1.857.528,3.862.36,5.683-.478l2.13-.978c1.107-.514,1.038-2.199-.099-2.525l-5.937-1.704c-1.866-.533-3.876-.376-5.689.473l-2.129.983c-1.107.514-1.042,2.193.09,2.523"/>
  <path class="st0" d="M319.452,48.383l6.043,1.288c1.899.399,3.891.094,5.643-.868l2.05-1.132c1.074-.594.888-2.259-.269-2.509l-6.046-1.288c-1.897-.399-3.882-.094-5.632.868l-2.066,1.132c-1.068.59-.879,2.264.278,2.509"/>
  <path class="st0" d="M310.072,55.704l6.126.854c1.915.273,3.883-.17,5.559-1.258l1.975-1.272c1.027-.663.723-2.314-.45-2.482l-6.116-.859c-1.92-.269-3.882.17-5.573,1.252l-1.965,1.281c-1.019.659-.728,2.315.443,2.484"/>
  <path class="st0" d="M301.238,63.654l6.162.429c1.935.129,3.866-.445,5.457-1.651l1.881-1.396c.983-.733.569-2.374-.613-2.448l-6.162-.429c-1.942-.14-3.876.439-5.467,1.635l-1.876,1.412c-.983.733-.569,2.363.618,2.448"/>
  <path class="st0" d="M292.98,72.197h6.17c1.947,0,3.827-.714,5.34-2.02l1.77-1.532c.928-.803.395-2.408-.783-2.408h-6.181c-1.945,0-3.827.723-5.338,2.03l-1.772,1.531c-.926.794-.399,2.399.794,2.399"/>
  <path class="st0" d="M285.328,81.304l6.165-.434c1.931-.135,3.763-.978,5.175-2.384l1.676-1.649c.857-.865.22-2.425-.958-2.34l-6.165.429c-1.942.14-3.766.973-5.184,2.39l-1.662,1.651c-.868.857-.23,2.418.953,2.338"/>
  <path class="st0" d="M278.338,90.918l6.117-.868c1.92-.264,3.687-1.231,5.003-2.737l1.541-1.766c.803-.911.06-2.429-1.107-2.264l-6.121.854c-1.926.264-3.692,1.247-5.01,2.748l-1.545,1.759c-.794.928-.05,2.44,1.122,2.275"/>
  <path class="st0" d="M272.026,100.987l6.043-1.283c1.901-.404,3.596-1.492,4.805-3.081l1.41-1.871c.744-.973-.103-2.424-1.267-2.179l-6.041,1.281c-1.89.4-3.587,1.492-4.794,3.093l-1.423,1.865c-.733.967.11,2.424,1.267,2.174"/>
  <path class="st0" d="M266.439,111.49l5.937-1.701c1.871-.539,3.483-1.742,4.576-3.421l1.286-1.966c.664-1.012-.283-2.413-1.421-2.089l-5.942,1.711c-1.862.533-3.478,1.74-4.571,3.41l-1.286,1.965c-.659,1.024.289,2.418,1.421,2.09"/>
  <path class="st0" d="M261.6,122.346l5.804-2.119c1.83-.648,3.352-1.965,4.328-3.715l1.144-2.05c.593-1.063-.45-2.39-1.557-1.981l-5.807,2.105c-1.825.663-3.352,1.979-4.332,3.726l-1.146,2.05c-.594,1.067.455,2.388,1.566,1.984"/>
  <path class="st0" d="M257.524,133.517l5.646-2.514c1.777-.792,3.21-2.204,4.059-4.015l.996-2.119c.514-1.113-.613-2.358-1.695-1.874l-5.643,2.503c-1.772.797-3.207,2.215-4.055,4.023l-.994,2.124c-.523,1.098.608,2.346,1.687,1.871"/>
  <path class="st0" d="M254.251,144.937l5.453-2.904c1.717-.902,3.044-2.422,3.766-4.284l.849-2.188c.443-1.132-.778-2.299-1.821-1.745l-5.462,2.897c-1.706.918-3.035,2.429-3.768,4.289l-.833,2.195c-.448,1.136.769,2.298,1.816,1.74"/>
  <path class="st0" d="M251.767,156.562l5.249-3.265c1.641-1.035,2.858-2.634,3.456-4.544l.689-2.245c.354-1.157-.939-2.239-1.942-1.616l-5.239,3.277c-1.646,1.026-2.868,2.627-3.462,4.542l-.684,2.234c-.365,1.171.934,2.248,1.931,1.616"/>
  <path class="st0" d="M250.115,168.336l4.994-3.626c1.571-1.146,2.679-2.833,3.134-4.776l.533-2.284c.28-1.187-1.088-2.175-2.046-1.481l-5.003,3.635c-1.566,1.146-2.668,2.826-3.127,4.776l-.53,2.285c-.28,1.182,1.086,2.174,2.045,1.47"/>
  <path class="st0" d="M249.277,180.191l4.735-3.965c1.486-1.252,2.475-3.003,2.783-4.984l.376-2.312c.198-1.198-1.238-2.094-2.145-1.332l-4.736,3.97c-1.483,1.251-2.47,3.006-2.788,4.982l-.365,2.319c-.198,1.201,1.238,2.085,2.14,1.322"/>
  <path class="st0" d="M249.267,192.084l4.45-4.289c1.396-1.35,2.259-3.171,2.44-5.161l.205-2.333c.108-1.219-1.378-2-2.23-1.189l-4.441,4.3c-1.405,1.346-2.259,3.171-2.434,5.157l-.214,2.339c-.113,1.212,1.377,1.995,2.225,1.176"/>
  <path class="st0" d="M254.226,199.35c1.307-1.44,2.036-3.322,2.069-5.311l.057-2.349c.02-1.215-1.518-1.89-2.31-1.017l-4.135,4.588c-1.304,1.44-2.032,3.311-2.067,5.317l-.048,2.344c-.027,1.215,1.517,1.904,2.303,1.022l4.131-4.594Z"/>
  <path class="st0" d="M255.553,210.846c1.199-1.527,1.791-3.456,1.703-5.442l-.126-2.353c-.064-1.212-1.635-1.78-2.374-.852l-3.802,4.867c-1.198,1.52-1.796,3.456-1.701,5.446l.12,2.344c.058,1.217,1.649,1.791,2.374.857l3.805-4.867Z"/>
  <path class="st0" d="M258.986,216.671l-.285-2.335c-.138-1.212-1.765-1.669-2.424-.679l-3.453,5.118c-1.086,1.61-1.552,3.564-1.311,5.55l.278,2.324c.14,1.212,1.766,1.676,2.425.687l3.463-5.122c1.081-1.61,1.54-3.566,1.306-5.545"/>
  <path class="st0" d="M261.506,227.792l-.445-2.299c-.23-1.196-1.881-1.547-2.475-.523l-3.088,5.35c-.964,1.681-1.292,3.671-.918,5.63l.438,2.305c.23,1.198,1.878,1.541,2.475.519l3.084-5.352c.981-1.679,1.297-3.669.928-5.63"/>
  <path class="st0" d="M264.783,238.708l-.599-2.269c-.31-1.173-1.975-1.401-2.494-.349l-2.709,5.561c-.859,1.745-1.043,3.75-.528,5.685l.597,2.264c.31,1.173,1.991,1.407,2.505.344l2.709-5.55c.849-1.756,1.043-3.754.519-5.685"/>
  <path class="st0" d="M268.833,249.371l-.756-2.215c-.393-1.162-2.076-1.272-2.525-.168l-2.31,5.724c-.723,1.805-.764,3.811-.124,5.705l.762,2.215c.39,1.157,2.076,1.272,2.516.17l2.314-5.721c.728-1.805.774-3.814.124-5.71"/>
  <path class="st0" d="M273.603,259.729l-.914-2.165c-.471-1.127-2.152-1.127-2.519.011l-1.91,5.869c-.593,1.85-.503,3.855.28,5.699l.909,2.167c.468,1.116,2.154,1.116,2.523-.012l1.906-5.875c.599-1.844.5-3.864-.275-5.694"/>
  <path class="st0" d="M278.033,267.633c-.544-1.091-2.234-.973-2.519.184l-1.497,5.99c-.464,1.88-.225,3.885.673,5.666l1.059,2.089c.553,1.09,2.229.969,2.514-.174l1.501-5.999c.464-1.887.23-3.882-.663-5.671l-1.068-2.085Z"/>
  <path class="st0" d="M284.06,277.293c-.633-1.042-2.296-.802-2.505.365l-1.072,6.078c-.329,1.915.05,3.89,1.066,5.611l1.205,2.014c.627,1.042,2.294.808,2.503-.363l1.068-6.085c.333-1.899-.035-3.883-1.058-5.6l-1.208-2.02Z"/>
  <path class="st0" d="M290.75,286.524c-.709-1.003-2.349-.641-2.47.533l-.652,6.139c-.195,1.926.317,3.88,1.456,5.517l1.341,1.924c.695,1.003,2.346.645,2.464-.528l.65-6.144c.204-1.926-.305-3.876-1.454-5.515l-1.336-1.926Z"/>
  <path class="st0" d="M298.065,295.266c-.764-.953-2.379-.48-2.42.702l-.22,6.174c-.064,1.936.579,3.835,1.835,5.396l1.472,1.827c.764.951,2.385.484,2.42-.7l.214-6.172c.071-1.94-.572-3.846-1.825-5.402l-1.477-1.825Z"/>
  <path class="st0" d="M307.568,305.185l-1.596-1.715c-.829-.893-2.401-.319-2.37.868l.214,6.179c.066,1.929.854,3.784,2.209,5.251l1.587,1.715c.833.904,2.416.324,2.376-.868l-.209-6.169c-.076-1.935-.854-3.8-2.211-5.262"/>
  <path class="st0" d="M316.145,312.706l-1.717-1.605c-.895-.838-2.42-.14-2.301,1.031l.65,6.144c.198,1.931,1.102,3.731,2.563,5.092l1.722,1.61c.882.824,2.42.142,2.3-1.031l-.648-6.144c-.211-1.936-1.107-3.734-2.569-5.097"/>
  <path class="st0" d="M328.133,324.509c-.335-1.91-1.357-3.641-2.904-4.907l-1.821-1.476c-.953-.772-2.431.025-2.23,1.192l1.074,6.078c.333,1.92,1.366,3.641,2.912,4.907l1.827,1.481c.942.758,2.424-.03,2.22-1.196l-1.077-6.08Z"/>
  <path class="st0" d="M338.011,330.549c-.464-1.885-1.616-3.54-3.247-4.688l-1.915-1.352c-.999-.703-2.431.195-2.142,1.341l1.497,5.995c.464,1.885,1.616,3.536,3.247,4.693l1.922,1.338c.997.707,2.425-.186,2.138-1.338l-1.501-5.99Z"/>
  <path class="st0" d="M348.283,335.876c-.599-1.841-1.866-3.407-3.566-4.443l-2.011-1.212c-1.049-.634-2.401.363-2.036,1.485l1.912,5.876c.599,1.844,1.86,3.416,3.566,4.449l2,1.221c1.049.624,2.415-.374,2.044-1.49l-1.91-5.885Z"/>
  <path class="st0" d="M358.905,340.484c-.719-1.8-2.091-3.283-3.876-4.195l-2.08-1.066c-1.088-.553-2.376.533-1.931,1.632l2.314,5.719c.73,1.807,2.092,3.288,3.873,4.193l2.09,1.072c1.088.555,2.374-.531,1.92-1.628l-2.31-5.726Z"/>
  <path class="st0" d="M369.825,344.338c-.854-1.74-2.321-3.122-4.162-3.91l-2.156-.927c-1.127-.48-2.328.698-1.804,1.759l2.703,5.551c.849,1.745,2.314,3.122,4.156,3.91l2.154.923c1.121.478,2.326-.693,1.811-1.756l-2.703-5.551Z"/>
  <path class="st0" d="M380.976,347.415c-.967-1.679-2.525-2.951-4.42-3.61l-2.211-.764c-1.162-.404-2.28.843-1.681,1.876l3.09,5.345c.967,1.681,2.523,2.959,4.418,3.612l2.206.767c1.159.404,2.285-.847,1.687-1.88l-3.088-5.347Z"/>
  <path class="st0" d="M392.32,349.719c-1.088-1.61-2.734-2.778-4.668-3.3l-2.255-.613c-1.178-.321-2.216,1.006-1.552,1.998l3.456,5.108c1.082,1.616,2.725,2.778,4.659,3.301l2.266.618c1.178.315,2.211-1.017,1.547-1.995l-3.453-5.116Z"/>
  <path class="st0" d="M403.8,351.216c-1.198-1.527-2.92-2.574-4.884-2.959l-2.301-.453c-1.191-.239-2.133,1.162-1.396,2.099l3.797,4.858c1.198,1.541,2.914,2.578,4.884,2.962l2.296.459c1.196.23,2.129-1.167,1.407-2.101l-3.802-4.865Z"/>
  <path class="st0" d="M415.349,351.914c-1.302-1.447-3.088-2.374-5.079-2.618l-2.319-.283c-1.212-.156-2.052,1.306-1.256,2.188l4.13,4.588c1.302,1.442,3.093,2.358,5.074,2.61l2.324.292c1.217.156,2.044-1.306,1.263-2.188l-4.137-4.589Z"/>
  <path class="st0" d="M426.93,351.794c-1.398-1.341-3.249-2.135-5.249-2.239l-2.333-.135c-1.235-.066-1.958,1.447-1.104,2.264l4.44,4.3c1.398,1.341,3.244,2.138,5.247,2.248l2.342.129c1.221.066,1.951-1.451,1.097-2.268l-4.44-4.3Z"/>
  <path class="st0" d="M438.459,350.886c-1.486-1.256-3.387-1.92-5.387-1.885l-2.346.035c-1.217.019-1.841,1.57-.934,2.333l4.73,3.981c1.486,1.24,3.382,1.904,5.387,1.869l2.344-.03c1.23-.016,1.846-1.586.944-2.339l-4.739-3.965Z"/>
  <path class="st0" d="M449.909,349.166c-1.568-1.148-3.517-1.676-5.499-1.501l-2.344.195c-1.212.099-1.727,1.71-.778,2.402l5.008,3.63c1.566,1.137,3.511,1.667,5.504,1.502l2.338-.209c1.217-.096,1.731-1.695.778-2.395l-5.008-3.625Z"/>
  <path class="st0" d="M466.451,349.919l-5.239-3.267c-1.651-1.036-3.632-1.421-5.602-1.118l-2.319.36c-1.208.186-1.609,1.825-.599,2.44l5.232,3.286c1.656,1.022,3.628,1.421,5.604,1.113l2.321-.36c1.199-.188,1.609-1.825.602-2.454"/>
  <path class="st0" d="M477.762,346.249l-5.45-2.904c-1.72-.905-3.715-1.16-5.676-.717l-2.28.524c-1.182.269-1.477,1.92-.431,2.487l5.46,2.893c1.706.918,3.706,1.168,5.657.719l2.289-.519c1.192-.269,1.477-1.931.431-2.484"/>
  <path class="st0" d="M488.782,341.795l-5.643-2.509c-1.775-.788-3.786-.898-5.697-.324l-2.25.679c-1.167.358-1.327,2.03-.248,2.509l5.646,2.517c1.766.788,3.782.898,5.697.324l2.245-.679c1.164-.36,1.332-2.029.25-2.517"/>
  <path class="st0" d="M499.473,336.589l-5.802-2.105c-1.821-.668-3.83-.638-5.708.069l-2.2.834c-1.127.438-1.187,2.117-.069,2.517l5.807,2.124c1.821.659,3.832.632,5.703-.08l2.2-.833c1.132-.434,1.187-2.124.069-2.528"/>
  <path class="st0" d="M509.781,330.654l-5.942-1.706c-1.866-.528-3.871-.369-5.694.475l-2.135.976c-1.097.519-1.028,2.204.104,2.53l5.942,1.704c1.866.533,3.876.376,5.682-.473l2.137-.981c1.107-.516,1.038-2.195-.094-2.525"/>
  <path class="st0" d="M519.639,324.011l-6.041-1.283c-1.901-.409-3.898-.097-5.648.863l-2.052,1.129c-1.072.597-.893,2.264.269,2.512l6.043,1.283c1.901.397,3.887.099,5.637-.863l2.066-1.127c1.063-.599.882-2.264-.275-2.514"/>
  <path class="st0" d="M529.008,316.69l-6.123-.863c-1.915-.269-3.885.179-5.561,1.267l-1.972,1.272c-1.028.663-.737,2.319.443,2.478l6.128.868c1.915.264,3.876-.175,5.557-1.267l1.975-1.277c1.019-.654.719-2.308-.448-2.479"/>
  <path class="st0" d="M537.847,308.74l-6.165-.423c-1.931-.143-3.867.445-5.458,1.635l-1.874,1.407c-.985.744-.565,2.363.613,2.448l6.16.436c1.936.129,3.867-.445,5.458-1.642l1.885-1.41c.983-.733.569-2.365-.618-2.45"/>
  <polygon class="st0" points="415.87 52.492 419.562 64.036 423.309 52.407 435.427 52.462 425.525 45.307 429.324 33.798 419.459 41.005 409.685 33.835 413.491 45.445 403.653 52.524 415.87 52.492"/>
  <polygon class="st0" points="371.153 53.741 370.259 41.653 363.902 52.088 352.13 49.204 360.088 58.475 353.708 68.778 364.983 64.075 372.812 73.326 371.821 61.15 383.039 56.563 371.153 53.741"/>
  <polygon class="st0" points="324.148 82.341 318.695 71.517 316.815 83.589 304.836 85.429 315.735 90.948 313.784 102.91 322.401 94.248 333.174 99.8 327.599 88.93 336.209 80.4 324.148 82.341"/>
  <polygon class="st0" points="297.376 131.517 302.065 120.342 291.664 126.752 282.485 118.838 285.368 130.711 275.004 136.995 287.187 137.923 289.961 149.72 294.608 138.421 306.685 139.427 297.376 131.517"/>
  <polygon class="st0" points="285.75 182.43 285.805 170.311 278.649 180.212 267.141 176.416 274.346 186.28 267.178 196.052 278.787 192.247 285.867 202.085 285.835 189.868 297.379 186.175 285.75 182.43"/>
  <polygon class="st0" points="306.669 232.927 294.491 233.917 289.906 222.698 287.083 234.585 274.998 235.48 285.431 241.837 282.546 253.609 291.815 245.651 302.121 252.03 297.417 240.756 306.669 232.927"/>
  <polygon class="st0" points="316.931 288.923 318.772 300.902 324.291 290.003 336.252 291.954 327.591 283.337 333.143 272.564 322.273 278.139 313.742 269.529 315.684 281.59 304.86 287.043 316.931 288.923"/>
  <polygon class="st0" points="364.054 320.37 370.338 330.734 371.266 318.552 383.063 315.776 371.764 311.129 372.772 299.052 364.862 308.362 353.684 303.673 360.096 314.074 352.182 323.252 364.054 320.37"/>
  <polygon class="st0" points="423.211 319.903 419.519 308.359 415.772 319.988 403.654 319.933 413.556 327.088 409.757 338.599 419.622 331.392 429.396 338.561 425.59 326.95 435.428 319.873 423.211 319.903"/>
  <polygon class="st0" points="467.928 318.655 468.823 330.741 475.179 320.306 486.951 323.19 478.993 313.921 485.373 303.616 474.098 308.321 466.27 299.07 467.26 311.246 456.04 315.833 467.928 318.655"/>
  <polygon class="st0" points="514.933 290.055 520.386 300.879 522.266 288.807 534.245 286.967 523.346 281.448 525.297 269.486 516.68 278.148 505.907 272.595 511.482 283.466 502.872 291.996 514.933 290.055"/>
  <polygon class="st0" points="551.894 234.472 549.12 222.675 544.473 233.975 532.396 232.968 541.706 240.879 537.016 252.054 547.416 245.644 556.594 253.558 553.714 241.685 564.076 235.399 551.894 234.472"/>
  <polygon class="st0" points="564.734 186.116 571.904 176.343 560.292 180.149 553.215 170.311 553.247 182.528 541.703 186.22 553.332 189.965 553.277 202.085 560.432 192.183 571.941 195.98 564.734 186.116"/>
  <polygon class="st0" points="532.413 139.469 544.589 138.479 549.176 149.696 551.998 137.811 564.084 136.916 553.651 130.558 556.535 118.787 547.264 126.745 536.961 120.366 541.664 131.64 532.413 139.469"/>
  <polygon class="st0" points="522.15 83.473 520.309 71.493 514.791 82.392 502.829 80.441 511.489 89.059 505.938 99.832 516.809 94.257 525.339 102.866 523.399 90.805 534.22 85.352 522.15 83.473"/>
  <polygon class="st0" points="475.028 52.025 468.744 41.663 467.815 53.844 456.018 56.618 467.318 61.265 466.31 73.344 474.22 64.033 485.397 68.722 478.985 58.321 486.899 49.142 475.028 52.025"/>
  <path class="st0" d="M500.909,186.418c0-45.364-36.777-82.139-82.142-82.139s-82.14,36.775-82.14,82.139c0,19.938,7.109,38.21,18.921,52.436,17.585.916,42.837,4.441,63.7,10.933,19.548-11.586,38.869-18.65,55.63-22.638.06-4.767-.034-16.157-.032-16.168l-5.74-.011c-1.803-.002-3.341-.64-4.619-1.915-1.276-1.277-1.915-2.817-1.915-4.62s.64-3.343,1.915-4.619c.703-.7,1.488-1.207,2.351-1.517-.064-.06-.128-.124-.188-.188-1.035-1.033-1.552-2.278-1.55-3.738-.002-1.465.516-2.714,1.55-3.75,1.035-1.038,2.285-1.559,3.749-1.562h.329c-.002-.067-.002-.133,0-.2.005-1.47.524-2.728,1.563-3.774,1.036-1.029,2.287-1.543,3.749-1.539,1.462-.004,2.707.51,3.738,1.539,1.04,1.045,1.559,2.303,1.562,3.774v.2h.34c1.46.003,2.705.524,3.738,1.562,1.038,1.036,1.559,2.285,1.563,3.75-.004,1.46-.524,2.705-1.563,3.738-.055.064-.11.126-.167.188.865.308,1.648.815,2.351,1.517,1.276,1.276,1.915,2.815,1.917,4.619-.002,1.804-.641,3.343-1.917,4.62-1.276,1.276-2.815,1.913-4.619,1.915l-5.894.108c.105,2.215-.115,11.083-.122,15.587,5.237-1.183,10.219-2.074,14.846-2.695,5.8-11.257,9.095-24.016,9.095-37.553M384.678,161.872l1.679-4.11c.347-.85,1.318-1.256,2.168-.911.849.349,1.256,1.318.909,2.168l-1.681,4.112c-.345.849-1.316,1.256-2.165.907-.85-.347-1.26-1.316-.911-2.167M370.259,156.938c.845-.354,1.82.044,2.174.889l1.719,4.094c.179.423.168.879.007,1.272-.159.393-.471.726-.895.904-.847.356-1.821-.043-2.175-.889l-1.719-4.094c-.356-.847.043-1.819.889-2.175M357.403,169.915c.347-.85,1.316-1.256,2.167-.909l4.112,1.679c.849.347,1.256,1.318.909,2.167-.347.85-1.318,1.258-2.167.911l-4.112-1.681c-.849-.345-1.256-1.316-.909-2.167M364.655,186.45c-.163.393-.475.726-.897.903l-4.094,1.719c-.849.354-1.821-.042-2.176-.889-.356-.847.043-1.821.888-2.175l4.096-1.719c.847-.356,1.819.042,2.175.888.177.425.167.88.007,1.274M374.312,196.018l-1.679,4.11c-.347.85-1.318,1.256-2.167.911-.85-.349-1.258-1.318-.909-2.168l1.679-4.11c.347-.85,1.318-1.258,2.167-.909.849.347,1.256,1.316.909,2.167M370.514,175.303c-1.97,4.821.356,10.348,5.187,12.323.849.347,1.258,1.316.911,2.165-.345.847-1.316,1.252-2.165.905-6.528-2.668-9.671-10.137-7.01-16.651,2.663-6.514,10.139-9.643,16.665-6.975,3.107,1.27,5.556,3.662,6.893,6.736.188.427.179.889.016,1.29-.158.386-.461.714-.875.893-.842.363-1.821-.023-2.186-.863-.992-2.275-2.804-4.046-5.102-4.985-4.831-1.974-10.364.342-12.334,5.162M399.657,227.441l-16.805,8.897v-56.773l16.805,6.073v41.803ZM401.508,170.98c-.161.393-.473.726-.895.903l-4.096,1.719c-.847.356-1.82-.042-2.176-.889-.354-.845.044-1.819.889-2.175l4.096-1.719c.845-.356,1.819.042,2.175.889.177.423.167.879.005,1.272M425.08,228.641l-18.924,9.462v-65.186l18.924,6.881v48.843ZM420.268,146.879c-1.926,1.081-4.098,1.722-6.42,1.832-.246.026-.507.026-.753.026-3.756,0-7.186-1.392-9.793-3.703-3.074-2.705-5.015-6.681-5.015-11.106,0-2.856.808-5.533,2.229-7.802,1.517-2.457,3.743-4.44,6.406-5.655.56-.273,1.148-.491,1.764-.684,1.392-.436,2.881-.67,4.411-.67,5.26,0,9.891,2.762,12.515,6.9-2.172-2.418-5.315-3.935-8.812-3.935-1.763,0-3.416.383-4.918,1.066-.547.244-1.081.546-1.571.873-2.432,1.586-4.25,4.057-5.001,6.954-.246.942-.369,1.926-.369,2.952,0,2.663.875,5.123,2.363,7.104,2.172,2.868,5.602,4.741,9.482,4.741h.012c.78,0,1.531-.069,2.268-.22,2.569-.491,4.851-1.83,6.544-3.715-1.323,2.103-3.168,3.839-5.341,5.04M424.817,133.929l5.109-1.667v-5.368l1.366,1.871,1.804,2.473,5.111-1.655-3.157,4.346.833,1.148,2.323,3.21-5.109-1.667-3.169,4.358v-5.382l-5.109-1.667ZM457.277,220.945l-24.854,12.428v-67.363l24.854,9.039v45.897Z"/>
  <rect class="st0" x="417.493" y="86.451" width="2.551" height="12.681"/>
  <rect class="st0" x="409.394" y="86.76" width="2.55" height="12.682" transform="translate(-6.553 36.155) rotate(-5.001)"/>
  <rect class="st0" x="401.352" y="87.773" width="2.551" height="12.682" transform="translate(-10.226 71.342) rotate(-10)"/>
  <rect class="st0" x="393.43" y="89.483" width="2.55" height="12.681" transform="translate(-11.352 105.393) rotate(-14.996)"/>
  <rect class="st0" x="385.686" y="91.877" width="2.55" height="12.682" transform="translate(-10.253 138.304) rotate(-20.005)"/>
  <rect class="st0" x="378.18" y="94.936" width="2.551" height="12.682" transform="translate(-7.244 169.883) rotate(-25.004)"/>
  <rect class="st0" x="370.97" y="98.639" width="2.55" height="12.681" transform="translate(-2.618 200.19) rotate(-30)"/>
  <rect class="st0" x="364.111" y="102.954" width="2.549" height="12.682" transform="translate(3.39 229.344) rotate(-35)"/>
  <rect class="st0" x="357.652" y="107.852" width="2.55" height="12.683" transform="translate(10.578 257.447) rotate(-40.003)"/>
  <rect class="st0" x="351.646" y="113.295" width="2.549" height="12.682" transform="translate(18.774 284.595) rotate(-45)"/>
  <rect class="st0" x="346.136" y="119.239" width="2.55" height="12.682" transform="translate(27.913 311.014) rotate(-50.004)"/>
  <rect class="st0" x="341.166" y="125.643" width="2.551" height="12.681" transform="translate(37.896 336.771) rotate(-54.996)"/>
  <rect class="st0" x="336.773" y="132.454" width="2.549" height="12.682" transform="translate(48.825 362.157) rotate(-60)"/>
  <rect class="st0" x="332.99" y="139.622" width="2.55" height="12.682" transform="translate(60.725 387.239) rotate(-65.003)"/>
  <rect class="st0" x="329.846" y="147.093" width="2.551" height="12.682" transform="translate(73.705 412.124) rotate(-70.003)"/>
  <rect class="st0" x="327.366" y="154.809" width="2.549" height="12.682" transform="translate(87.946 436.904) rotate(-75.005)"/>
  <rect class="st0" x="325.567" y="162.712" width="2.549" height="12.683" transform="translate(103.607 461.578) rotate(-80.001)"/>
  <rect class="st0" x="324.463" y="170.742" width="2.55" height="12.682" transform="translate(120.936 486.146) rotate(-84.999)"/>
  <rect class="st0" x="318.999" y="183.904" width="12.681" height="2.551"/>
  <rect class="st0" x="319.307" y="192.003" width="12.682" height="2.549" transform="translate(-15.609 29.124) rotate(-5.001)"/>
  <rect class="st0" x="320.319" y="200.044" width="12.682" height="2.55" transform="translate(-29.995 59.779) rotate(-9.999)"/>
  <rect class="st0" x="322.03" y="207.967" width="12.681" height="2.55" transform="translate(-42.958 92.091) rotate(-14.996)"/>
  <rect class="st0" x="324.423" y="215.711" width="12.681" height="2.551" transform="translate(-54.262 126.194) rotate(-19.997)"/>
  <rect class="st0" x="327.483" y="223.216" width="12.682" height="2.55" transform="translate(-63.593 162.088) rotate(-24.996)"/>
  <rect class="st0" x="331.185" y="230.427" width="12.682" height="2.549" transform="translate(-70.625 199.73) rotate(-29.989)"/>
  <rect class="st0" x="504.097" y="211.626" width="2.551" height="12.681" transform="translate(127.707 618.316) rotate(-70.001)"/>
  <rect class="st0" x="506.578" y="203.909" width="2.55" height="12.682" transform="translate(173.377 646.422) rotate(-75.007)"/>
  <rect class="st0" x="508.377" y="196.007" width="2.549" height="12.681" transform="translate(221.875 669.116) rotate(-80)"/>
  <rect class="st0" x="509.479" y="187.976" width="2.55" height="12.683" transform="translate(272.662 686.193) rotate(-85)"/>
  <rect class="st0" x="504.812" y="184.947" width="12.683" height="2.551"/>
  <rect class="st0" x="504.504" y="176.848" width="12.681" height="2.549" transform="translate(-13.582 45.207) rotate(-5.001)"/>
  <rect class="st0" x="503.492" y="168.806" width="12.683" height="2.55" transform="translate(-21.787 91.107) rotate(-9.999)"/>
  <rect class="st0" x="501.783" y="160.883" width="12.68" height="2.55" transform="translate(-24.654 136.995) rotate(-14.995)"/>
  <rect class="st0" x="499.388" y="153.139" width="12.681" height="2.551" transform="translate(-22.315 182.252) rotate(-19.997)"/>
  <rect class="st0" x="496.329" y="145.633" width="12.681" height="2.551" transform="translate(-14.994 226.173) rotate(-24.997)"/>
  <rect class="st0" x="492.627" y="138.423" width="12.682" height="2.55" transform="translate(-3 268.2) rotate(-30)"/>
  <rect class="st0" x="488.31" y="131.563" width="12.682" height="2.549" transform="translate(13.277 307.78) rotate(-35.004)"/>
  <rect class="st0" x="483.412" y="125.105" width="12.681" height="2.55" transform="translate(33.374 344.434) rotate(-40.008)"/>
  <rect class="st0" x="477.97" y="119.099" width="12.681" height="2.55" transform="translate(56.734 377.716) rotate(-45)"/>
  <rect class="st0" x="472.025" y="113.589" width="12.683" height="2.55" transform="translate(82.874 407.463) rotate(-49.997)"/>
  <rect class="st0" x="465.623" y="108.619" width="12.682" height="2.55" transform="translate(111.237 433.473) rotate(-55)"/>
  <rect class="st0" x="458.812" y="104.227" width="12.682" height="2.549" transform="translate(141.209 455.585) rotate(-60)"/>
  <rect class="st0" x="451.643" y="100.443" width="12.682" height="2.55" transform="translate(172.267 473.823) rotate(-65.004)"/>
  <rect class="st0" x="444.172" y="97.3" width="12.682" height="2.55" transform="translate(203.93 488.288) rotate(-70.019)"/>
  <rect class="st0" x="436.457" y="94.819" width="12.681" height="2.549" transform="translate(235.51 499.003) rotate(-75.019)"/>
  <rect class="st0" x="428.553" y="93.02" width="12.681" height="2.55" transform="translate(266.523 506.212) rotate(-80.001)"/>
  <rect class="st0" x="420.523" y="91.916" width="12.682" height="2.55" transform="translate(296.675 510.263) rotate(-84.98)"/>
  <path class="st0" d="M425.686,257.475l13.849,5.611s16.789-16.623,80.548-31.085c0,0-51.602,0-94.396,25.474"/>
  <path class="st0" d="M327.027,248.778c63.818,10.406,96.343,25.722,96.343,25.722l12.72-9.225c-45.02-21.296-109.063-16.497-109.063-16.497"/>
  <path class="st0" d="M419.541,304.514c-65.243,0-118.317-53.077-118.317-118.317s53.074-118.317,118.317-118.317,118.315,53.079,118.315,118.317-53.076,118.317-118.315,118.317M419.541,70.531c-63.78,0-115.673,51.887-115.673,115.666s51.894,115.67,115.673,115.67,115.666-51.889,115.666-115.67-51.887-115.666-115.666-115.666"/>
</svg>