<?xml version="1.0" encoding="UTF-8"?>
<svg id="Layer_1" xmlns="http://www.w3.org/2000/svg" version="1.1" viewBox="0 0 836.673 547.89">
  <!-- Generator: Adobe Illustrator 29.3.1, SVG Export Plug-In . SVG Version: 2.1.0 Build 151)  -->
  <defs>
    <style>
      .st0 {
        fill: #384151;
      }

      .st1 {
        fill: #ee2c3e;
      }

      .st2 {
        fill: #fedd00;
      }

      .st3 {
        fill: #e2e8f0;
      }

      .st4 {
        fill: #fff;
      }

      .st5 {
        fill: #27aae1;
      }

      .st6 {
        fill: #1d1f21;
      }
    </style>
  </defs>
  <g id="Layer_11">
    <g>
      <path class="st2" d="M556.672,30.267v26.072c0,5.054-.087,10.738-.301,16.955-2.483,71.486-22.638,214.128-138.034,287.68-115.407-73.551-135.553-216.194-138.035-287.68-.223-6.217-.301-11.892-.301-16.935v-26.092s276.671,0,276.671,0Z"/>
      <path class="st1" d="M398.925,338.35l14.33-56.687c.038-.15-.075-.295-.23-.295h-21.432c-.156,0-.269-.147-.229-.298l15.934-59.413c.034-.125.16-.197.285-.164,6.544,1.753,13.671,1.275,19.886-1.489,1.153-.513,2.276-1.097,3.353-1.753.191-.117.416.066.339.276l-17.718,48.017c-.057.153.055.317.219.318l19.03.211c.172.002.285.182.212.337l-33.538,71.097c-.123.259-.514.119-.443-.159h.001v.002Z"/>
      <g>
        <circle class="st4" cx="385.338" cy="233.579" r="3.548"/>
        <circle class="st4" cx="359.107" cy="233.579" r="3.548"/>
        <circle class="st4" cx="330.962" cy="233.579" r="3.548"/>
        <circle class="st4" cx="342.98" cy="257.483" r="3.548"/>
        <circle class="st4" cx="371.266" cy="257.488" r="3.548"/>
        <circle class="st4" cx="384.656" cy="284.031" r="3.548"/>
        <circle class="st4" cx="357.322" cy="281.401" r="3.548"/>
        <circle class="st4" cx="374.815" cy="301.221" r="3.548"/>
        <circle class="st4" cx="390.109" cy="317.519" r="3.548"/>
      </g>
      <path class="st4" d="M426.564,261.429c-.17,0-.343-.029-.512-.091-.771-.283-1.167-1.138-.884-1.909l5.767-15.736c.283-.772,1.138-1.166,1.909-.884.772.283,1.168,1.138.885,1.909l-5.768,15.736c-.22.602-.79.975-1.397.975h0Z"/>
      <path class="st4" d="M435.609,236.752c-.17,0-.343-.029-.512-.091-.771-.283-1.167-1.138-.884-1.909l5.021-13.697c.283-.772,1.135-1.166,1.909-.884.771.283,1.167,1.138.884,1.909l-5.021,13.697c-.22.602-.79.975-1.397.975Z"/>
      <path class="st4" d="M413.788,327.904c-.17,0-.343-.029-.512-.091-.771-.283-1.167-1.138-.884-1.909l5.426-14.805c.283-.772,1.136-1.167,1.909-.884.771.283,1.167,1.138.884,1.909l-5.426,14.805c-.22.602-.79.975-1.397.975h0Z"/>
      <path class="st4" d="M438.119,260.401c-.17,0-.343-.029-.512-.091-.771-.283-1.167-1.138-.884-1.909l5.834-15.921c.283-.772,1.136-1.168,1.909-.884.771.283,1.167,1.138.884,1.909l-5.834,15.921c-.22.602-.79.975-1.397.975Z"/>
      <path class="st4" d="M446.787,236.752c-.17,0-.343-.029-.512-.091-.771-.283-1.167-1.138-.884-1.909l4.175-11.391c.283-.772,1.136-1.167,1.909-.884.771.283,1.167,1.138.884,1.909l-4.175,11.391c-.22.602-.79.975-1.397.975Z"/>
      <path class="st4" d="M420.287,340.446c-.17,0-.343-.029-.512-.091-.771-.283-1.167-1.138-.884-1.909l7.31-19.946c.283-.771,1.138-1.168,1.909-.884.771.283,1.167,1.138.884,1.909l-7.31,19.946c-.22.602-.79.975-1.397.975h0Z"/>
      <path class="st4" d="M431.293,310.418c-.17,0-.343-.029-.512-.091-.771-.283-1.167-1.138-.884-1.909l5.653-15.421c.283-.772,1.135-1.167,1.909-.884.771.283,1.167,1.138.884,1.909l-5.653,15.421c-.22.602-.79.975-1.397.975Z"/>
      <path class="st4" d="M440.065,286.479c-.17,0-.343-.029-.512-.091-.771-.283-1.167-1.138-.884-1.909l11.442-31.218c.283-.772,1.138-1.166,1.909-.884.771.283,1.167,1.138.884,1.909l-11.442,31.218c-.22.602-.79.975-1.397.975h0Z"/>
      <path class="st4" d="M464.918,221.509l-8.215,22.415c-.222.604-.791.977-1.398.977-.172,0-.344-.031-.512-.092-.771-.283-1.168-1.139-.886-1.91l7.581-20.686c1.161-.179,2.311-.413,3.43-.706h0v.002Z"/>
      <path class="st4" d="M432.507,338.497c-.17,0-.343-.029-.512-.091-.771-.283-1.167-1.138-.884-1.909l3.995-10.903c.283-.772,1.138-1.166,1.909-.884.771.283,1.167,1.138.884,1.909l-3.995,10.903c-.22.602-.79.975-1.397.975Z"/>
      <path class="st4" d="M440.917,315.548c-.17,0-.343-.029-.512-.091-.771-.283-1.167-1.138-.884-1.909l7.533-20.553c.283-.772,1.138-1.167,1.909-.884s1.167,1.138.884,1.909l-7.533,20.553c-.22.602-.79.975-1.397.975h0Z"/>
      <path class="st4" d="M450.961,288.143c-.17,0-.343-.029-.512-.091-.772-.283-1.168-1.138-.885-1.907l3.221-8.787c.283-.772,1.14-1.168,1.907-.885.772.283,1.168,1.138.885,1.907l-3.221,8.787c-.22.604-.79.976-1.397.976h.002Z"/>
      <path class="st4" d="M456.695,272.499c-.17,0-.343-.029-.512-.091-.771-.283-1.167-1.138-.884-1.909l4.721-12.882c.283-.772,1.135-1.167,1.909-.884.771.283,1.167,1.138.884,1.909l-4.721,12.882c-.22.602-.79.975-1.397.975Z"/>
      <path class="st4" d="M463.85,252.975c-.17,0-.343-.029-.512-.091-.771-.283-1.167-1.138-.884-1.909l6.7-18.283c.283-.772,1.136-1.168,1.909-.884.771.283,1.167,1.138.884,1.909l-6.7,18.283c-.22.602-.79.975-1.397.975h0Z"/>
      <path class="st4" d="M478.098,216.934l-3.705,10.113c-.222.6-.791.974-1.398.974-.172,0-.344-.031-.512-.092-.771-.283-1.168-1.139-.886-1.91l3.491-9.53c.413-.344.81-.703,1.188-1.077.592.539,1.199,1.047,1.821,1.521h.001,0Z"/>
      <path class="st4" d="M447.771,328.236c-.17,0-.343-.029-.512-.091-.771-.283-1.167-1.138-.884-1.909l4.651-12.688c.283-.772,1.136-1.166,1.909-.884.771.283,1.167,1.138.884,1.909l-4.651,12.688c-.22.602-.79.975-1.397.975Z"/>
      <path class="st4" d="M454.796,309.071c-.17,0-.343-.029-.512-.091-.771-.283-1.167-1.138-.884-1.909l6.137-16.744c.283-.772,1.135-1.168,1.909-.884.771.283,1.167,1.138.884,1.909l-6.137,16.744c-.22.602-.79.975-1.397.975h0Z"/>
      <path class="st4" d="M463.597,285.057c-.17,0-.343-.029-.512-.091-.771-.283-1.167-1.138-.884-1.909l4.23-11.538c.283-.772,1.138-1.167,1.909-.884s1.167,1.138.884,1.909l-4.23,11.538c-.22.602-.79.975-1.397.975Z"/>
      <path class="st4" d="M470.719,265.295c-.17,0-.343-.029-.512-.091-.771-.283-1.167-1.138-.884-1.909l8.24-22.484c.283-.772,1.136-1.166,1.909-.884.771.283,1.167,1.138.884,1.909l-8.24,22.484c-.22.602-.79.975-1.397.975Z"/>
      <path class="st4" d="M482.315,233.987c-.17,0-.343-.029-.512-.091-.771-.283-1.167-1.138-.884-1.909l2.932-8.002c.283-.772,1.136-1.166,1.909-.884.771.283,1.167,1.138.884,1.909l-2.932,8.002c-.22.602-.79.975-1.397.975Z"/>
      <path class="st4" d="M465.745,310.588c-.17,0-.343-.029-.512-.091-.771-.283-1.167-1.138-.884-1.909l2.901-7.917c.283-.772,1.135-1.166,1.909-.884.771.283,1.167,1.138.884,1.909l-2.901,7.917c-.22.602-.79.975-1.397.975Z"/>
      <path class="st4" d="M471.748,294.21c-.17,0-.343-.029-.512-.091-.771-.283-1.167-1.138-.884-1.909l3.355-9.154c.283-.772,1.136-1.168,1.909-.884.771.283,1.167,1.138.884,1.909l-3.355,9.154c-.22.602-.79.975-1.397.975Z"/>
      <path class="st4" d="M478.182,276.656c-.17,0-.343-.029-.512-.091-.771-.283-1.167-1.138-.884-1.909l8.061-21.996c.283-.772,1.136-1.166,1.909-.884.771.283,1.167,1.138.884,1.909l-8.061,21.996c-.22.602-.79.975-1.397.975Z"/>
      <path class="st4" d="M489.974,244.48c-.17,0-.343-.029-.512-.091-.771-.283-1.167-1.138-.884-1.909l6.032-16.459c.283-.772,1.136-1.167,1.909-.884.771.283,1.167,1.138.884,1.909l-6.032,16.459c-.22.602-.79.975-1.397.975Z"/>
      <path class="st4" d="M485.475,288.143c-.17,0-.343-.029-.512-.091-.771-.283-1.167-1.138-.884-1.909l2.786-7.599c.283-.772,1.136-1.167,1.909-.884.771.283,1.167,1.138.884,1.909l-2.786,7.599c-.22.602-.79.975-1.397.975Z"/>
      <path class="st4" d="M490.506,274.416c-.17,0-.343-.029-.512-.091-.771-.283-1.167-1.138-.884-1.909l6.176-16.853c.283-.772,1.136-1.168,1.909-.884.771.283,1.167,1.138.884,1.909l-6.176,16.853c-.22.602-.79.975-1.397.975Z"/>
      <path class="st4" d="M499.585,249.647c-.17,0-.343-.029-.512-.091-.771-.283-1.167-1.138-.884-1.909l9.204-25.115c.283-.772,1.138-1.168,1.909-.884.771.283,1.167,1.138.884,1.909l-9.204,25.115c-.22.602-.79.975-1.397.975h0Z"/>
      <g>
        <path class="st5" d="M527.971,197.073c.323-1.888.48-3.861.417-5.885,0-11.007-5.665-20.699-14.272-26.365-.97-16.484-15.524-29.275-31.538-29.275-2.39,0-4.81.282-7.219.876-5.321-10.527-16.296-15.66-27.314-15.66-12.05,0-24.163,6.145-28.951,18.112-.021.052-.041.094-.062.146-.052-.032-.094-.052-.146-.084-4.037-2.295-8.503-3.349-12.958-3.349-.459,0-.918.011-1.377.032-2.786.136-5.561.678-8.2,1.575-.282.094-.553.187-.824.292-.813.303-1.617.637-2.4,1.013-.512.239-1.013.49-1.512.762-.439.239-.876.48-1.304.741-.052.032-.104.062-.157.093-5.749,3.526-10.277,8.941-12.112,15.576-2.431-.667-4.904-.991-7.355-.991-7.866,0-15.556,3.265-21.106,8.628-.011,0-.021.011-.032.041-.209.187-.417.396-.615.606-.72.73-1.387,1.502-2.013,2.295-.032.032-.052.062-.084.104-.177.219-.344.448-.512.678-.387.522-.74,1.043-1.085,1.586-.125.209-.251.407-.365.615-.094.146-.177.292-.261.449-.292.49-.563,1.002-.813,1.523-.334.678-.647,1.377-.918,2.087-1.847-.387-3.715-.574-5.561-.574-14.178,0-27.49,10.777-27.189,24.351,0,0-19.342-53.666-20.751-107.334h257.913s-1.628,59.239-19.322,107.334h0l-.002.002h0Z"/>
        <path class="st2" d="M433.605,100.224l-29.056,35.399c-2.786.136-5.561.678-8.2,1.575-1.106.375-2.181.803-3.224,1.304-1.022.48-2.013,1.013-2.973,1.596-4.289-3.36-9.692-5.363-15.545-5.363-13.928,0-25.258,11.33-25.258,25.258,0,1.127.073,2.233.23,3.317-.949.918-1.847,1.899-2.661,2.942-.856,1.085-1.628,2.222-2.306,3.433-.292.49-.563,1.002-.813,1.523-.282-.084-.594-.114-.929-.104l-32.489,1.482,30.516-10.058c2.545-.845,2.609-4.434.084-5.363l-37.705-13.835,38.445,4.778c2.786.344,4.33-3.14,2.19-4.966l-37.193-31.779,43.756,25.008c2.347,1.346,5.07-1.043,4.027-3.547l-14.46-34.825,22.588,30.818c.615.824,1.492,1.189,2.358,1.158.49-.021.981-.157,1.398-.407.007-.014.014-.018.021-.011.74-.449,1.284-1.231,1.346-2.254l1.68-28.774,7.064,27.71c.574,2.629,4.132,3.067,5.321.647l14.919-28.169-6.468,31.08c-.542,2.629,2.536,4.476,4.59,2.754l38.748-32.332h0l-.002.005h0Z"/>
        <path class="st1" d="M390.151,140.099c-5.749,3.526-10.277,8.941-12.112,15.576-2.431-.667-4.904-.991-7.355-.991-7.866,0-15.556,3.265-21.106,8.628-.157-1.085-.23-2.19-.23-3.317,0-13.928,11.33-25.258,25.258-25.258,5.853,0,11.258,2.003,15.545,5.363h0Z"/>
        <g>
          <path class="st4" d="M522.139,191.367c.23,7.981-3.506,13.542-6.677,16.808-5.102,5.248-12.478,8.378-19.729,8.378-4.059,0-9.994-1.002-15.242-5.769l-4.392-3.986-4.215,4.173c-3.433,3.381-9.348,5.394-15.858,5.394-6.458,0-12.311-2.003-15.649-5.363l-4.444-4.455-4.434,4.455c-3.38,3.401-9.264,5.425-15.733,5.425s-12.353-2.024-15.733-5.425l-4.444-4.455-4.434,4.455c-3.38,3.401-9.254,5.425-15.722,5.425s-12.373-2.035-15.754-5.446l-4.111-4.141-4.412,3.808c-4.215,3.61-9.327,4.371-12.874,4.371-6.688,0-13.438-2.702-17.632-7.053-2.973-3.089-4.414-6.677-4.267-10.663l.011-.187v-.177c-.114-5.133,2.536-8.952,4.779-11.246,4.111-4.194,10.151-6.709,16.15-6.709,1.45,0,2.889.146,4.289.439l5.206,1.085,1.91-4.956c3.255-8.462,12.499-14.606,21.962-14.606,1.951,0,3.861.261,5.696.762l6.02,1.669,1.669-6.031c2.452-8.837,11.852-15.503,21.857-15.493,3.631,0,6.99.866,9.963,2.588l6.302,3.641,2.661-6.761c4.162-10.548,15.096-14.293,23.192-14.293,9.734,0,17.86,4.569,21.732,12.228l2.243,4.455,4.851-1.211c1.867-.459,3.788-.688,5.707-.688,13.177,0,24.528,10.495,25.3,23.39l.177,3.13,2.629,1.732c7.167,4.715,11.445,12.614,11.445,21.127v.084l.011.094h-.005v-.002Z"/>
          <path class="st3" d="M528.388,191.191c0-11.008-5.664-20.701-14.273-26.366-.97-16.485-15.522-29.276-31.537-29.276-2.391,0-4.812.283-7.223.878-5.32-10.531-16.294-15.66-27.312-15.66-12.05,0-24.161,6.142-28.951,18.112-.019.05-.042.092-.061.145-.053-.031-.095-.053-.149-.084-4.037-2.295-8.502-3.349-12.955-3.349-.459,0-.921.012-1.379.031-2.784.138-5.561.68-8.2,1.577-.275.092-.551.191-.822.29h-.004c-.206.077-.409.153-.607.233-.111.042-.218.088-.329.133-.084.031-.169.068-.252.103-.007.004-.015.004-.022.007-.046.019-.088.038-.133.061-.031.012-.061.022-.092.038-.099.042-.195.084-.29.126-.225.099-.45.203-.672.309-.512.24-1.013.493-1.512.764-.111.058-.218.118-.329.179-.138.073-.271.149-.404.225-.179.103-.355.206-.53.314-.012.007-.027.015-.038.022-.053.031-.107.061-.157.092-5.748,3.526-10.278,8.941-12.115,15.576-2.43-.668-4.9-.989-7.352-.989-7.868,0-15.556,3.265-21.106,8.628-.004.004-.012.012-.015.012,0,0-.004.004-.004.007-.007.007-.012.015-.015.022-.05.046-.103.095-.157.145-.153.145-.309.305-.459.459-.149.149-.294.302-.435.455-.084.088-.169.179-.249.271-.123.133-.24.264-.355.397-.169.194-.336.389-.496.585-.16.194-.321.389-.477.588-.031.031-.053.065-.084.103-.08.099-.157.203-.233.305-.095.123-.187.249-.279.375-.321.435-.619.871-.909,1.318-.061.088-.118.179-.176.268-.034.058-.068.114-.099.172-.042.068-.084.133-.123.203,0,0,0,.004-.004.004-.046.08-.092.157-.138.237-.019.031-.038.058-.053.088-.073.118-.141.24-.21.363-.29.489-.561,1.001-.813,1.524-.332.675-.646,1.375-.917,2.085-1.845-.385-3.712-.573-5.561-.573-14.178,0-27.492,10.775-27.186,24.349-.542,14.544,14.009,24.204,28.145,24.204,6.157,0,12.229-1.833,16.954-5.882,2.945,2.964,6.948,5.027,11.382,6.176.607.169,1.211.314,1.837.428,2.276.459,4.621.687,6.982.687,5.828,0,11.653-1.398,16.233-4.205.699-.428,1.375-.886,2.012-1.386.68-.523,1.314-1.085,1.91-1.681,4.832,4.851,12.497,7.272,20.178,7.272s15.346-2.421,20.166-7.272c4.797,4.82,12.436,7.211,20.094,7.211,1.833,0,3.666-.138,5.462-.409,1.161-.179,2.311-.413,3.43-.706,3.847-.997,7.38-2.674,10.171-5.018.413-.344.81-.703,1.188-1.077.592.539,1.199,1.047,1.821,1.521,5.267,4.056,11.446,5.878,17.634,5.878,14.742,0,29.547-10.362,32.24-25.739.321-1.887.477-3.857.416-5.882h-.002ZM522.113,193.399c-.012.218-.027.431-.046.641-.012.126-.022.249-.034.37-.004.053-.007.103-.015.157-.004.046-.012.088-.015.13-.022.198-.046.397-.077.592-.015.103-.031.203-.046.302-.015.103-.031.206-.05.305-.031.198-.068.397-.107.592-.038.203-.084.397-.13.595-.213.932-.474,1.821-.779,2.662-.36.986-.776,1.91-1.226,2.773-.065.123-.13.244-.195.367-.13.24-.268.477-.404.706s-.279.455-.42.675c-.107.169-.213.329-.321.489-.107.16-.218.317-.329.474-.218.305-.44.604-.665.89-.012.015-.022.027-.031.042-.141.176-.283.348-.42.515-.149.184-.302.36-.45.53s-.298.336-.447.496-.298.317-.443.47c-5.103,5.248-12.478,8.376-19.731,8.376-4.056,0-9.995-1.001-15.243-5.772l-4.392-3.983-4.213,4.174c-3.434,3.38-9.349,5.393-15.858,5.393-6.459,0-12.309-2.005-15.651-5.363l-4.442-4.457-4.435,4.457c-3.38,3.4-9.266,5.424-15.733,5.424s-12.352-2.024-15.733-5.424l-4.445-4.457-3.182,3.204-1.253,1.253c-.114.114-.233.225-.351.336-.123.111-.244.222-.37.332-.005.005-.012.012-.019.019-.08.068-.16.141-.244.21-.012.007-.019.015-.031.022-.046.034-.092.068-.141.099-.022.034-.053.042-.073.065-.042.034-.084.068-.126.103-.042.031-.084.061-.126.095-.012.007-.022.019-.034.027-.187.145-.375.283-.569.413-.012.004-.019.007-.027.015-.012.007-.022.015-.031.019-.019.012-.038.027-.058.038-.012.007-.019.012-.031.019-.141.095-.286.187-.431.279-.007.004-.012.007-.019.012-.08.053-.169.107-.252.16-.042.019-.08.038-.114.061-.065.038-.13.077-.195.111-.007.004-.015.007-.022.012-.149.088-.302.172-.459.252-.077.042-.149.08-.225.118-.073.038-.141.077-.218.111-.015.007-.031.012-.046.019-.027.015-.053.031-.08.042-.065.031-.13.061-.195.088-.176.08-.351.164-.53.249-.118.053-.233.103-.351.153-.164.068-.329.133-.496.198-.015.004-.027.012-.042.015-.118.05-.244.092-.363.138-.184.068-.37.138-.561.198-.031.012-.065.022-.099.034-.176.058-.355.114-.535.169-.088.027-.176.053-.264.077-.068.022-.138.042-.206.065-.107.034-.218.065-.324.092-.355.095-.714.184-1.077.268-.184.042-.37.08-.554.118-.031.012-.061.012-.092.019-.172.031-.339.065-.512.095-.172.027-.339.058-.512.084-.099.019-.203.034-.302.05-.031.007-.061.012-.092.015s-.065.007-.095.015c-.027.004-.058.007-.084.012-.123.015-.244.031-.367.042-.058.012-.118.019-.184.027-.123.019-.252.031-.378.042-.061.004-.126.012-.187.015-.012.004-.019.004-.027.007-.015,0-.031,0-.046.004h-.034c-.058.007-.118.015-.179.019-.019.004-.034.007-.053.007-.095.007-.195.015-.29.022-.088.007-.172.015-.259.022-.107.007-.222.019-.332.019-.031.004-.058.004-.084.004-.015,0-.027.004-.042.004-.149.012-.298.019-.447.022-.08.004-.16.004-.24.004-.169.004-.329.007-.496.012-.16.004-.329.007-.493.007-.203,0-.404-.004-.607-.007-.111,0-.222-.004-.332-.007-.019,0-.042,0-.061-.004-.118,0-.229-.004-.344-.012h-.022c-.073,0-.138,0-.198-.012-.088,0-.176-.004-.264-.012-.176-.007-.348-.022-.52-.038-.015,0-.034-.004-.053-.004-.065-.007-.133-.012-.198-.019-.038-.004-.077-.004-.118-.007-.065-.004-.13-.012-.198-.015-.022,0-.05-.004-.073-.007-.027-.004-.053-.007-.08-.012-.019,0-.038,0-.058-.004-.022-.004-.042-.004-.061-.007h-.015c-.198-.019-.409-.038-.607-.073-.012,0-.022,0-.034-.004-.015-.004-.027-.004-.038-.004-.088-.012-.176-.022-.268-.038-.015,0-.031-.004-.05-.007-.092-.012-.184-.031-.275-.05-.229-.034-.455-.065-.68-.103-.007,0-.019-.004-.027-.004-.058-.007-.114-.015-.172-.027-.007-.004-.015-.007-.022-.007s-.015,0-.022-.004c-.015-.004-.027-.004-.042-.012h-.004c-.022,0-.042-.012-.065-.012-.118-.022-.244-.046-.367-.068-.092-.019-.179-.034-.268-.053-.08-.019-.153-.031-.229-.053-.007-.004-.015-.004-.027-.007-.015-.004-.031-.012-.05-.015-.073-.015-.149-.031-.222-.05-.007,0-.012-.004-.019-.004-.084-.019-.169-.038-.256-.061-.073-.019-.149-.038-.222-.061-.103-.022-.21-.05-.314-.077-.133-.034-.268-.068-.397-.111-.007-.004-.019-.004-.027-.007-.153-.046-.305-.092-.459-.141-.107-.034-.218-.068-.324-.103l-.034-.012c-.042-.012-.084-.027-.126-.038h-.012c-.061-.019-.123-.042-.184-.068-.153-.05-.302-.103-.45-.16-.019-.007-.038-.012-.053-.019-.107-.042-.218-.084-.324-.13-.332-.133-.665-.271-.989-.416-.046-.019-.092-.038-.133-.053-.027-.015-.05-.022-.077-.034-.012-.007-.022-.012-.031-.015-.218-.099-.428-.203-.631-.309-.022-.012-.046-.022-.068-.034-.126-.065-.249-.13-.37-.198-.143-.077-.278-.16-.416-.24-.163-.094-.321-.187-.477-.283-.059-.037-.117-.074-.176-.112-.203-.13-.406-.259-.6-.396-.189-.131-.37-.269-.549-.407-.171-.134-.341-.269-.508-.414-.098-.084-.199-.164-.295-.249-.019-.015-.038-.031-.053-.046-.061-.053-.123-.111-.184-.169-.111-.103-.218-.21-.324-.317l-4.109-4.14-4.415,3.808c-.13.114-.264.222-.397.329-.264.213-.535.416-.806.611-.138.095-.275.191-.413.283-.012.007-.012.019-.022.019-.184.118-.378.249-.569.355-.004.004-.007.004-.012.004-.022.015-.042.027-.065.038-.007.004-.012.007-.015.012-.007.007-.015.007-.019.012-.034.027-.068.046-.107.065-.007.007-.019.012-.027.015-.015.012-.031.019-.046.027-.012.004-.022.012-.038.015-.08.05-.16.099-.24.141-.123.073-.249.141-.375.203-.012.007-.019.012-.031.015-.053.034-.103.061-.157.084-.019.012-.038.019-.061.027-.031.019-.065.034-.095.05-.015.012-.031.019-.046.027-.141.073-.283.145-.424.206-.133.061-.259.114-.385.176-.073.031-.141.058-.213.084-.084.038-.172.068-.256.103-.133.053-.268.111-.404.157-.099.038-.198.077-.294.107-.042.019-.084.031-.126.042-.077.027-.149.058-.225.08-.222.08-.443.145-.672.21-.309.095-.634.176-.948.252-.191.038-.378.084-.561.13-.012.004-.022.004-.034.007-.027.004-.058.012-.084.019-.061.012-.123.022-.184.034-.05.012-.103.022-.157.031-.012,0-.019.004-.031.004-.027.004-.053.007-.077.012-.05.012-.099.022-.145.031-.088.019-.172.031-.252.042-.099.019-.198.034-.294.046-.012.004-.019.004-.031.007-.022.004-.05.007-.073.012-.042.012-.084.012-.123.019-.145.019-.286.038-.428.053-.203.027-.401.046-.6.065-.244.022-.484.042-.718.058-.107.007-.21.015-.314.019-.08.004-.164.007-.244.012-.088.004-.179.007-.268.012-.111.004-.222.004-.329.007-.149.004-.298.004-.443.004-6.688,0-13.436-2.701-17.631-7.051-2.972-3.09-4.411-6.676-4.266-10.664l.012-.187v-.176c-.114-5.134,2.532-8.953,4.778-11.248,4.109-4.194,10.149-6.706,16.149-6.706.191,0,.378.004.566.007.138.004.279.007.416.015.126.004.249.012.375.022h.053c.187.012.382.027.573.046.229.022.459.053.687.084h.027c.015.004.031.004.046.004.187.027.37.053.554.08.046.007.088.015.133.022.169.027.336.058.505.092.058.007.118.015.176.027.061.012.123.027.179.034l5.206,1.085,1.314-3.422.595-1.531c.084-.21.169-.416.256-.626.088-.206.179-.413.275-.615.05-.107.103-.218.157-.329.053-.111.111-.222.169-.329.004-.012.007-.019.012-.031,0-.002.001-.005.004-.007.015-.042.034-.08.058-.118.012-.022.019-.053.042-.073.092-.179.187-.355.29-.535.088-.157.179-.314.271-.466.058-.095.118-.194.179-.29.073-.123.149-.24.229-.363.077-.118.157-.237.24-.355.157-.237.321-.47.496-.699.068-.099.145-.198.222-.298.012-.012.022-.031.031-.042l.004-.004c.141-.187.286-.367.435-.546.095-.114.191-.229.29-.344.095-.114.195-.225.294-.336.149-.169.298-.336.455-.496.172-.184.348-.363.527-.542.191-.194.389-.385.592-.573.007-.004.015-.012.022-.019.111-.103.222-.203.332-.302.264-.229.535-.459.806-.687.321-.259.657-.52,1.001-.76.986-.73,2.024-1.386,3.105-1.959.022-.015.046-.027.068-.038.351-.184.703-.363,1.062-.53.123-.058.249-.118.375-.172.126-.058.252-.114.378-.169.213-.092.431-.184.653-.268.015-.007.034-.015.053-.022s.038-.015.053-.022c.103-.042.206-.08.305-.114.073-.027.145-.053.213-.08.015-.004.027-.012.042-.015.118-.042.244-.084.367-.126.153-.058.302-.107.459-.153.179-.061.363-.111.546-.164.145-.046.29-.092.435-.13.007-.004.012-.007.015-.007.007-.004.015-.004.027-.004.08-.022.157-.046.237-.065.015-.004.031-.007.046-.012.111-.034.222-.061.332-.088.022-.004.046-.012.068-.015.058-.015.114-.027.172-.038.073-.019.141-.034.213-.053.073-.019.141-.034.213-.05.088-.019.179-.038.268-.053.058-.012.114-.022.172-.031.268-.053.535-.103.806-.149.271-.042.546-.08.822-.114.061-.012.126-.019.187-.022.065-.007.13-.012.198-.019.053-.007.111-.015.169-.022.012,0,.027-.004.042-.004.13-.015.264-.027.394-.034.012,0,.022,0,.034-.004.279-.022.554-.038.832-.05h.019c.305-.012.595-.019.89-.019,1.947,0,3.857.259,5.695.76l6.019,1.669,1.669-6.031c.084-.302.179-.604.283-.905.015-.058.034-.107.053-.164v-.004s.001-.005.004-.007c.019-.061.042-.118.065-.179.022-.061.046-.123.068-.187.042-.123.092-.244.141-.367.027-.073.053-.145.084-.213.042-.114.092-.229.145-.339.007-.019.015-.034.022-.053.077-.179.16-.355.244-.53.007-.022.019-.042.027-.061.061-.126.118-.244.184-.363.022-.038.046-.08.068-.118.027-.053.053-.111.08-.164.007-.015.012-.027.019-.042.019-.031.034-.061.053-.092.034-.065.068-.13.107-.191.053-.099.107-.195.16-.29.015-.022.027-.042.034-.061.08-.138.164-.275.249-.409.084-.138.169-.268.256-.401.126-.195.256-.385.389-.576.268-.382.546-.749.841-1.112.179-.229.367-.447.566-.668.133-.164.279-.321.428-.477.08-.088.164-.179.249-.268.176-.187.355-.37.542-.546.092-.088.187-.176.283-.264.042-.042.084-.084.126-.123.042-.042.088-.08.133-.123.031-.027.061-.053.092-.084.068-.061.141-.118.213-.179.218-.191.447-.389.675-.576.012-.007.022-.019.031-.019.042-.038.088-.077.133-.114.046-.038.092-.073.133-.107.252-.195.512-.382.771-.569.252-.184.512-.36.776-.535.073-.05.145-.095.218-.141.203-.136.409-.266.619-.394.071-.042.145-.083.216-.125.196-.114.391-.23.589-.337l.259-.141c.092-.053.187-.099.283-.149.004-.002.008-.005.012-.006.296-.153.591-.306.894-.448l.424-.195.424-.184c.141-.058.286-.118.428-.176.145-.058.29-.114.435-.169v-.007c.019-.004.034-.007.053-.015.031-.015.065-.027.099-.038h.004c.573-.21,1.146-.397,1.738-.573h.004c.294-.084.595-.157.886-.229.118-.031.233-.061.351-.088.007-.004.019-.004.027-.007.084-.019.157-.031.24-.053.004,0,.007,0,.012-.004.027-.007.058-.012.084-.015.169-.038.336-.068.505-.103.126-.027.252-.046.378-.068.123-.019.249-.038.375-.058.073-.012.141-.022.21-.031.022-.012.034-.012.053-.012.015,0,.027,0,.042-.007,0,0,.004-.004.007-.004h.004c.05-.012.092-.012.145-.019.103-.012.206-.027.309-.038.375-.046.752-.084,1.131-.111.118-.012.237-.019.355-.022.118-.007.233-.015.355-.019.294-.012.585-.019.878-.019h.08c.184,0,.363.004.542.007.015,0,.034,0,.05.004.143.004.284.013.427.02.06,0,.13.011.192.011.229.012.459.019.687.053.042,0,.095.007.138.007.073,0,.145.012.218.022.019,0,.042,0,.061.012.324.031.638.073.951.123.012-.007.031,0,.042,0,.061.012.114.022.176.031.229.034.459.077.68.118.031.007.073.007.103.019.004,0,.012.004.015.004.068.015.133.027.203.05.355.073.711.164,1.054.259.149.038.29.077.431.118.145.042.283.088.424.133.073.031.149.05.222.08.004,0,.007.004.012.004.126.042.252.084.378.13s.249.092.37.141c.068.027.138.053.21.08.05.022.103.042.157.065.153.061.302.126.45.195.077.034.153.068.225.103s.149.073.222.107c.046.019.095.042.145.065s.095.046.145.073c.05.022.099.046.149.073.061.031.123.061.187.095.123.065.244.13.37.198.015.007.034.019.05.027.092.053.187.103.279.157l1.898,1.096,4.399,2.547,2.609-6.638.053-.123c.114-.283.229-.566.355-.848v-.004c.073-.157.145-.309.218-.462.092-.198.187-.394.286-.585l.004-.004c.107-.213.218-.424.336-.631.004-.007.007-.015.012-.022.004-.015.012-.031.019-.042.034-.058.065-.114.095-.169.007-.012.012-.022.019-.031.004-.007.007-.015.012-.022.031-.053.058-.103.084-.157.133-.229.271-.447.416-.668.015-.027.034-.05.053-.077.015-.027.034-.053.05-.08.053-.088.111-.172.172-.256.061-.095.126-.187.195-.279.088-.126.179-.249.271-.37.015-.022.027-.046.042-.065.015-.027.034-.05.053-.073.206-.283.428-.561.657-.832.08-.095.157-.187.233-.275.111-.13.225-.259.336-.385.007-.007.012-.012.019-.019.118-.133.24-.264.363-.389.004-.007.012-.012.019-.019.027-.034.061-.073.092-.103.053-.053.107-.107.16-.157.053-.061.111-.114.169-.169.019-.019.038-.038.058-.053.077-.077.157-.153.233-.225.084-.08.169-.16.252-.237.004-.004.007-.007.012-.012.088-.088.176-.169.268-.252.007-.007.019-.012.031-.019s.022-.019.031-.034c.092-.077.184-.157.279-.233.015-.012.031-.022.046-.038.103-.084.206-.169.314-.249.169-.138.344-.283.512-.409.176-.138.355-.271.53-.397.344-.249.706-.496,1.069-.726.107-.068.213-.141.321-.206.053-.034.107-.065.16-.099s.107-.065.16-.095c.107-.068.218-.13.329-.195.111-.061.222-.123.329-.179.107-.061.218-.123.329-.184.111-.058.222-.114.329-.172.065-.034.13-.065.195-.103.095-.046.195-.095.29-.145.164-.077.324-.153.485-.222.206-.099.416-.195.626-.29.213-.092.424-.179.638-.264.385-.157.771-.302,1.168-.435.435-.157.886-.305,1.333-.44.022,0,.031-.012.042-.012.233-.068.466-.138.699-.195.229-.061.459-.118.691-.172.176-.038.351-.08.542-.123.176-.042.351-.084.53-.114.169-.042.344-.073.512-.095.298-.058.588-.107.886-.157.022-.004.046-.007.068-.012.061-.007.126-.019.191-.031h.031c.345-.05.687-.086,1.029-.121.079-.007.159-.014.236-.024.101-.011.197-.02.291-.028.369-.032.736-.059,1.095-.075.172-.007.344-.015.515-.022.259-.007.515-.012.767-.012,9.736,0,17.863,4.572,21.733,12.229l2.242,4.454,4.854-1.211c1.864-.459,3.785-.687,5.707-.687,13.177,0,24.528,10.495,25.3,23.39l.176,3.132,2.628,1.731c7.168,4.717,11.446,12.616,11.446,21.129v.08l.012.095c.007.24.012.477.012.714,0,.447-.012.886-.038,1.318h0l.004-.009h0l-.002.005Z"/>
        </g>
      </g>
      <g>
        <path class="st6" d="M310.621,81.846v-30.105h-.124l-5.451,23.91h-3.902l-5.451-23.91h-.124v30.105h-6.194v-43.36h8.61l5.141,23.29h.124l5.08-23.29h8.859v43.361h-6.568Z"/>
        <path class="st6" d="M330.814,44.556v12.266h9.602v6.07h-9.602v12.885h11.893v6.07h-18.459v-43.36h18.459v6.07h-11.893,0Z"/>
        <path class="st6" d="M358.936,44.68v37.166h-6.566v-37.166h-7v-6.194h20.565v6.194h-7,.001Z"/>
        <path class="st6" d="M376.65,44.556v12.266h9.602v6.07h-9.602v12.885h11.893v6.07h-18.459v-43.36h18.459v6.07h-11.893,0Z"/>
        <path class="st6" d="M414.619,48.829v22.671c0,6.814-4.027,10.964-10.593,10.964s-10.592-4.151-10.592-10.964v-22.671c0-6.812,4.026-10.964,10.592-10.964s10.593,4.151,10.593,10.964ZM400,48.893v22.548c0,3.221,1.424,4.956,4.026,4.956s4.027-1.735,4.027-4.956v-22.548c0-3.222-1.425-4.956-4.027-4.956s-4.026,1.734-4.026,4.956h0Z"/>
        <path class="st6" d="M429.981,63.512h-3.036v18.336h-6.566v-43.361h9.478c7.061,0,10.902,3.841,10.902,10.964v3.098c0,4.583-1.61,7.805-4.646,9.539l6.009,19.761h-6.936l-5.203-18.336h-.002ZM426.944,57.439h2.664c3.159,0,4.583-1.672,4.583-5.326v-2.23c0-3.654-1.424-5.327-4.583-5.327h-2.664v12.883Z"/>
        <path class="st6" d="M467.332,48.829v22.671c0,6.814-4.027,10.964-10.593,10.964s-10.592-4.151-10.592-10.964v-22.671c0-6.812,4.026-10.964,10.592-10.964s10.593,4.151,10.593,10.964ZM452.713,48.893v22.548c0,3.221,1.424,4.956,4.026,4.956s4.027-1.735,4.027-4.956v-22.548c0-3.222-1.425-4.956-4.027-4.956s-4.026,1.734-4.026,4.956Z"/>
        <path class="st6" d="M491.24,75.652v6.194h-17.53v-43.36h6.566v37.166h10.964Z"/>
        <path class="st6" d="M515.833,48.829v22.671c0,6.814-4.027,10.964-10.593,10.964s-10.592-4.151-10.592-10.964v-22.671c0-6.812,4.026-10.964,10.592-10.964s10.593,4.151,10.593,10.964ZM501.214,48.893v22.548c0,3.221,1.424,4.956,4.026,4.956s4.027-1.735,4.027-4.956v-22.548c0-3.222-1.425-4.956-4.027-4.956s-4.026,1.734-4.026,4.956Z"/>
        <path class="st6" d="M533.98,71.749c0,6.937-3.283,10.717-10.097,10.717-1.548,0-3.034-.186-4.398-.559l.373-6.007c.804.248,1.92.495,3.221.495,3.034,0,4.336-1.487,4.336-4.831v-33.078h6.566v33.263h0Z"/>
        <path class="st6" d="M540.733,81.845h6.565v-34.387h-6.565v34.387ZM540.733,38.484v6.441h6.565v-6.441h-6.565Z"/>
      </g>
    </g>
  </g>
  <g>
    <path class="st0" d="M203.324,466.533v-44.649h16.482l5.694,17.38c.319,1.062.685,2.463,1.094,4.21.409,1.749.824,3.622,1.244,5.619.419,1.998.804,3.926,1.154,5.785.349,1.859.633,3.456.853,4.796h-2.008c.221-1.318.504-2.909.853-4.766.349-1.859.728-3.789,1.14-5.798.409-2.008.819-3.879,1.228-5.619s.774-3.147,1.094-4.227l5.603-17.38h16.511v44.649h-10.638v-19.239c0-.998.02-2.281.06-3.85.041-1.568.084-3.272.134-5.109.049-1.839.1-3.692.15-5.56.049-1.866.074-3.611.074-5.229h.63c-.36,1.778-.775,3.615-1.244,5.514-.47,1.896-.939,3.745-1.409,5.542-.47,1.798-.919,3.447-1.348,4.946s-.794,2.748-1.094,3.745l-6.354,19.239h-8.84l-6.443-19.239c-.3-.976-.669-2.217-1.109-3.715s-.898-3.145-1.378-4.943-.96-3.645-1.438-5.544c-.479-1.896-.919-3.745-1.318-5.542h.779c.02,1.577.049,3.297.09,5.153.041,1.859.084,3.715.134,5.574.049,1.859.1,3.571.15,5.14s.074,2.862.074,3.879v19.239h-10.609Z"/>
    <path class="st0" d="M261.218,466.533v-44.649h30.986v8.63h-20.407v9.229h18.789v8.451h-18.789v9.709h20.377v8.63h-30.955Z"/>
    <path class="st0" d="M297.147,430.513v-8.63h37.578v8.63h-13.515v36.019h-10.547v-36.019h-13.516Z"/>
    <path class="st0" d="M340.18,466.533v-44.649h30.986v8.63h-20.407v9.229h18.789v8.451h-18.789v9.709h20.377v8.63h-30.955Z"/>
    <path class="st0" d="M397.865,467.132c-4.016,0-7.626-.889-10.834-2.665-3.206-1.779-5.748-4.375-7.626-7.791s-2.816-7.562-2.816-12.437c0-4.916.939-9.079,2.816-12.495,1.876-3.416,4.42-6.014,7.626-7.791,3.206-1.779,6.817-2.668,10.834-2.668s7.598.89,10.803,2.668c3.206,1.778,5.743,4.375,7.611,7.791s2.802,7.581,2.802,12.495-.934,9.049-2.802,12.465-4.405,6.009-7.611,7.776-6.808,2.651-10.803,2.651h0v.002ZM397.865,457.843c2.158,0,4.016-.519,5.574-1.558,1.558-1.038,2.756-2.572,3.596-4.599s1.258-4.51,1.258-7.448c0-2.956-.419-5.453-1.258-7.491s-2.037-3.576-3.596-4.616c-1.558-1.038-3.416-1.558-5.574-1.558-2.178,0-4.046.525-5.603,1.574s-2.756,2.587-3.596,4.616-1.258,4.522-1.258,7.476c0,2.936.419,5.416,1.258,7.431.84,2.02,2.037,3.552,3.596,4.6s3.426,1.573,5.603,1.573h0Z"/>
    <path class="st0" d="M425.044,466.533v-44.649h18.279c3.356,0,6.254.605,8.692,1.814s4.309,2.921,5.62,5.14c1.307,2.217,1.962,4.846,1.962,7.882,0,3.056-.669,5.668-2.008,7.835s-3.248,3.81-5.723,4.929c-2.477,1.118-5.423,1.679-8.84,1.679h-11.657v-8.362h9.74c1.659,0,3.042-.219,4.15-.66,1.109-.438,1.948-1.108,2.518-2.007s.854-2.037.854-3.416c0-1.399-.283-2.557-.854-3.476-.57-.919-1.414-1.613-2.532-2.085-1.119-.47-2.507-.704-4.166-.704h-5.453v36.08h-10.583ZM449.556,466.533l-10.878-20.406h11.327l11.146,20.406h-11.597.001Z"/>
    <path class="st0" d="M485.935,467.132c-4.016,0-7.626-.889-10.833-2.665-3.206-1.779-5.749-4.375-7.628-7.791-1.878-3.416-2.816-7.562-2.816-12.437,0-4.916.939-9.079,2.816-12.495s4.42-6.014,7.628-7.791c3.206-1.779,6.816-2.668,10.833-2.668s7.598.89,10.804,2.668c3.206,1.778,5.743,4.375,7.611,7.791,1.866,3.416,2.802,7.581,2.802,12.495s-.934,9.049-2.802,12.465-4.405,6.009-7.611,7.776-6.808,2.651-10.804,2.651h0v.002ZM485.935,457.843c2.158,0,4.016-.519,5.574-1.558,1.558-1.038,2.756-2.572,3.596-4.599s1.258-4.51,1.258-7.448c0-2.956-.419-5.453-1.258-7.491s-2.037-3.576-3.596-4.616c-1.558-1.038-3.416-1.558-5.574-1.558-2.178,0-4.046.525-5.603,1.574s-2.756,2.587-3.596,4.616-1.258,4.522-1.258,7.476c0,2.936.419,5.416,1.258,7.431.84,2.02,2.037,3.552,3.596,4.6s3.426,1.573,5.603,1.573h0Z"/>
    <path class="st0" d="M513.114,466.533v-44.649h10.578v36.019h18.669v8.63h-29.247Z"/>
    <path class="st0" d="M566.334,467.132c-4.016,0-7.626-.889-10.833-2.665-3.206-1.779-5.749-4.375-7.628-7.791-1.878-3.416-2.816-7.562-2.816-12.437,0-4.916.939-9.079,2.816-12.495s4.42-6.014,7.628-7.791c3.206-1.779,6.816-2.668,10.833-2.668s7.598.89,10.804,2.668c3.206,1.778,5.743,4.375,7.611,7.791,1.866,3.416,2.802,7.581,2.802,12.495s-.934,9.049-2.802,12.465-4.405,6.009-7.611,7.776c-3.206,1.767-6.808,2.651-10.804,2.651h0v.002ZM566.334,457.843c2.158,0,4.016-.519,5.574-1.558,1.558-1.038,2.756-2.572,3.596-4.599s1.258-4.51,1.258-7.448c0-2.956-.419-5.453-1.258-7.491s-2.037-3.576-3.596-4.616c-1.558-1.038-3.416-1.558-5.574-1.558-2.178,0-4.046.525-5.603,1.574s-2.756,2.587-3.596,4.616-1.258,4.522-1.258,7.476c0,2.936.419,5.416,1.258,7.431.84,2.02,2.037,3.552,3.596,4.6s3.426,1.573,5.603,1.573h0Z"/>
    <path class="st0" d="M607.299,467.132c-4.916,0-8.75-1.233-11.507-3.699s-4.136-5.988-4.136-10.564v-2.695h10.578v2.876c0,1.899.45,3.327,1.348,4.286s2.139,1.438,3.715,1.438,2.81-.479,3.7-1.438c.889-.96,1.334-2.409,1.334-4.347v-31.104h10.428v30.926c0,4.596-1.36,8.133-4.076,10.608-2.716,2.478-6.513,3.715-11.387,3.715h.002l.002-.002Z"/>
    <path class="st0" d="M635.048,417.958c-1.478,0-2.748-.495-3.806-1.484s-1.588-2.171-1.588-3.55c0-1.399.528-2.587,1.588-3.568,1.06-.976,2.327-1.467,3.806-1.467,1.498,0,2.777.491,3.835,1.467,1.06.979,1.588,2.179,1.588,3.596,0,1.377-.528,2.559-1.588,3.535-1.06.979-2.338,1.471-3.835,1.471h0ZM640.293,421.883v44.649h-10.578v-44.649h10.578Z"/>
    <path class="st0" d="M136.498,540.779c-4.236,0-7.961-.925-11.178-2.773-3.216-1.847-5.729-4.479-7.537-7.896s-2.712-7.473-2.712-12.166c0-4.875.954-9.025,2.862-12.452,1.908-3.425,4.466-6.042,7.672-7.852,3.206-1.806,6.796-2.711,10.773-2.711,2.578,0,4.97.369,7.177,1.108,2.207.741,4.174,1.79,5.904,3.147,1.728,1.359,3.126,2.962,4.196,4.808,1.069,1.849,1.743,3.88,2.022,6.098h-10.698c-.259-.919-.636-1.744-1.123-2.475-.489-.729-1.094-1.348-1.814-1.859s-1.533-.894-2.442-1.154c-.91-.257-1.922-.389-3.042-.389-2.158,0-4.041.528-5.649,1.587-1.61,1.062-2.848,2.603-3.715,4.63s-1.303,4.479-1.303,7.357c0,2.898.425,5.365,1.274,7.403.848,2.037,2.072,3.596,3.67,4.675s3.515,1.618,5.753,1.618c2.018,0,3.721-.331,5.11-.99,1.389-.66,2.442-1.601,3.162-2.831s1.078-2.671,1.078-4.329l2.008.269h-10.937v-7.76h19.149v5.873c0,3.975-.84,7.385-2.518,10.233s-4.002,5.03-6.967,6.547c-2.966,1.519-6.359,2.278-10.173,2.278h-.001v.004h.002Z"/>
    <path class="st0" d="M162.268,540.18v-44.649h30.986v8.63h-20.407v9.229h18.789v8.451h-18.789v9.709h20.377v8.63h-30.955Z"/>
    <path class="st0" d="M199.698,540.18v-44.649h11.628l12.466,20.165c.799,1.34,1.585,2.724,2.352,4.15s1.533,3.012,2.292,4.751,1.528,3.735,2.307,5.993h-.988c-.12-1.64-.246-3.457-.374-5.453-.131-1.998-.246-3.942-.344-5.83-.1-1.888-.15-3.481-.15-4.779v-18.998h10.847v44.649h-11.657l-11.417-18.49c-1.02-1.695-1.943-3.306-2.773-4.823-.829-1.52-1.659-3.166-2.487-4.946-.829-1.778-1.804-3.864-2.922-6.261h1.228c.139,2.138.275,4.22.404,6.247.13,2.029.234,3.886.315,5.574.08,1.689.12,3.091.12,4.209v18.49h-10.848.001Z"/>
    <path class="st0" d="M246.685,540.18v-44.649h30.986v8.63h-20.407v9.229h18.789v8.451h-18.789v9.709h20.377v8.63h-30.955Z"/>
    <path class="st0" d="M284.112,540.18v-44.649h10.578v36.019h18.669v8.63h-29.248.001Z"/>
    <path class="st0" d="M332.239,540.18v-44.649h16.482l5.694,17.38c.319,1.058.685,2.463,1.094,4.209.409,1.749.824,3.621,1.244,5.62.419,1.997.804,3.924,1.154,5.783s.633,3.458.854,4.796h-2.008c.221-1.318.504-2.906.854-4.763.349-1.859.728-3.792,1.139-5.8.409-2.008.819-3.88,1.228-5.62.409-1.738.774-3.145,1.094-4.223l5.603-17.38h16.511v44.649h-10.638v-19.239c0-.999.02-2.283.06-3.852s.084-3.271.134-5.11c.049-1.838.1-3.69.15-5.558s.074-3.612.074-5.23h.63c-.361,1.78-.775,3.618-1.244,5.514-.47,1.899-.939,3.748-1.409,5.544-.47,1.798-.919,3.445-1.348,4.943s-.794,2.749-1.094,3.748l-6.354,19.239h-8.84l-6.443-19.239c-.3-.979-.669-2.217-1.109-3.715s-.898-3.147-1.377-4.946-.96-3.645-1.438-5.542c-.479-1.898-.919-3.748-1.318-5.544h.779c.02,1.58.049,3.297.09,5.153.041,1.859.084,3.715.134,5.574.049,1.859.1,3.573.15,5.141.049,1.569.074,2.863.074,3.88v19.239h-10.608l-.004-.004v.002Z"/>
    <path class="st0" d="M408.952,540.748c-3.756,0-7.046-.674-9.874-2.022-2.828-1.348-5.025-3.255-6.591-5.723-1.569-2.466-2.352-5.359-2.352-8.676v-28.795h10.578v27.929c0,1.558.349,2.947,1.048,4.165.699,1.22,1.664,2.172,2.891,2.863s2.662,1.033,4.3,1.033,3.082-.344,4.33-1.033c1.249-.69,2.217-1.642,2.908-2.863.69-1.216,1.034-2.605,1.034-4.165v-27.929h10.577v28.795c0,3.317-.79,6.21-2.367,8.676-1.577,2.467-3.781,4.375-6.607,5.723-2.827,1.348-6.119,2.022-9.874,2.022h-.001.001,0ZM402.15,491.276c-1.339,0-2.483-.461-3.432-1.377-.949-.919-1.423-2.028-1.423-3.327s.474-2.407,1.423-3.325c.949-.919,2.092-1.377,3.432-1.377,1.359,0,2.512.458,3.461,1.377.949.918,1.423,2.028,1.423,3.325s-.475,2.409-1.423,3.327c-.949.918-2.103,1.377-3.461,1.377ZM415.725,491.276c-1.339,0-2.487-.461-3.446-1.377-.96-.919-1.438-2.028-1.438-3.327s.479-2.407,1.438-3.325c.96-.919,2.109-1.377,3.446-1.377s2.482.458,3.432,1.377c.949.918,1.421,2.028,1.421,3.325s-.474,2.409-1.421,3.327c-.949.918-2.093,1.377-3.432,1.377Z"/>
    <path class="st0" d="M445.332,495.53v44.649h-10.578v-44.649h10.578ZM451.174,540.18h-11.867v-9.049h11.417c2.557,0,4.72-.429,6.488-1.291,1.768-.859,3.101-2.267,4-4.223.898-1.959,1.348-4.545,1.348-7.762s-.461-5.798-1.377-7.746-2.261-3.356-4.03-4.226-3.961-1.303-6.579-1.303h-11.478v-9.049h12.077c4.534,0,8.441.894,11.716,2.682s5.803,4.351,7.582,7.688c1.779,3.335,2.667,7.322,2.667,11.955s-.884,8.627-2.651,11.973c-1.768,3.348-4.297,5.909-7.582,7.685-3.287,1.78-7.198,2.668-11.732,2.668h.001v-.002h-.001Z"/>
    <path class="st0" d="M497.923,540.748c-3.756,0-7.046-.674-9.872-2.022-2.827-1.348-5.026-3.255-6.591-5.723-1.569-2.466-2.353-5.359-2.353-8.676v-28.795h10.578v27.929c0,1.558.349,2.947,1.048,4.165.699,1.22,1.664,2.172,2.892,2.863s2.662,1.033,4.3,1.033,3.082-.344,4.33-1.033c1.249-.69,2.217-1.642,2.908-2.863.69-1.216,1.033-2.605,1.033-4.165v-27.929h10.578v28.795c0,3.317-.79,6.21-2.367,8.676-1.577,2.467-3.781,4.375-6.607,5.723-2.827,1.348-6.119,2.022-9.874,2.022h-.002ZM491.119,491.276c-1.339,0-2.482-.461-3.431-1.377-.95-.919-1.423-2.028-1.423-3.327s.474-2.407,1.423-3.325c.949-.919,2.092-1.377,3.431-1.377,1.36,0,2.512.458,3.462,1.377.949.918,1.421,2.028,1.421,3.325s-.474,2.409-1.421,3.327c-.95.918-2.103,1.377-3.462,1.377ZM504.694,491.276c-1.339,0-2.487-.461-3.446-1.377-.96-.919-1.438-2.028-1.438-3.327s.479-2.407,1.438-3.325c.96-.919,2.109-1.377,3.446-1.377s2.482.458,3.432,1.377c.949.918,1.421,2.028,1.421,3.325s-.474,2.409-1.421,3.327c-.95.918-2.093,1.377-3.432,1.377Z"/>
    <path class="st0" d="M523.724,540.18v-44.649h18.279c3.356,0,6.254.605,8.692,1.812,2.437,1.209,4.309,2.922,5.62,5.141,1.307,2.217,1.962,4.845,1.962,7.88,0,3.056-.669,5.67-2.008,7.836-1.339,2.168-3.248,3.81-5.723,4.928-2.477,1.12-5.423,1.679-8.84,1.679h-11.657v-8.359h9.74c1.659,0,3.042-.221,4.15-.66,1.109-.44,1.948-1.111,2.518-2.009s.854-2.037.854-3.416c0-1.396-.283-2.556-.854-3.476-.57-.918-1.414-1.613-2.532-2.082s-2.507-.703-4.166-.703h-5.453v36.08h-10.583ZM548.236,540.18l-10.878-20.408h11.327l11.146,20.408h-11.597.001Z"/>
    <path class="st0" d="M564.359,540.18v-44.649h10.578v36.019h18.669v8.63h-29.247Z"/>
    <path class="st0" d="M617.878,540.748c-3.756,0-7.046-.674-9.872-2.022-2.827-1.348-5.026-3.255-6.591-5.723-1.569-2.466-2.353-5.359-2.353-8.676v-28.795h10.578v27.929c0,1.558.349,2.947,1.048,4.165.699,1.22,1.664,2.172,2.892,2.863s2.662,1.033,4.3,1.033,3.082-.344,4.33-1.033c1.249-.69,2.217-1.642,2.908-2.863.69-1.216,1.033-2.605,1.033-4.165v-27.929h10.578v28.795c0,3.317-.79,6.21-2.367,8.676-1.577,2.467-3.781,4.375-6.607,5.723-2.827,1.348-6.119,2.022-9.874,2.022h-.002ZM611.075,491.276c-1.339,0-2.482-.461-3.431-1.377-.95-.919-1.423-2.028-1.423-3.327s.474-2.407,1.423-3.325c.949-.919,2.092-1.377,3.431-1.377,1.36,0,2.512.458,3.462,1.377.949.918,1.421,2.028,1.421,3.325s-.474,2.409-1.421,3.327c-.95.918-2.103,1.377-3.462,1.377ZM624.649,491.276c-1.339,0-2.487-.461-3.446-1.377-.96-.919-1.438-2.028-1.438-3.327s.479-2.407,1.438-3.325c.96-.919,2.109-1.377,3.446-1.377s2.482.458,3.432,1.377c.949.918,1.421,2.028,1.421,3.325s-.474,2.409-1.421,3.327c-.95.918-2.093,1.377-3.432,1.377Z"/>
    <path class="st0" d="M664.086,540.779c-4.236,0-7.961-.925-11.178-2.773-3.216-1.847-5.73-4.479-7.535-7.896-1.808-3.416-2.712-7.473-2.712-12.166,0-4.875.954-9.025,2.863-12.452,1.908-3.425,4.466-6.042,7.672-7.852,3.206-1.806,6.797-2.711,10.772-2.711,2.578,0,4.97.369,7.178,1.108,2.207.741,4.174,1.79,5.904,3.147,1.728,1.359,3.126,2.962,4.196,4.808,1.069,1.849,1.743,3.88,2.022,6.098h-10.699c-.258-.919-.636-1.744-1.123-2.475-.491-.729-1.094-1.348-1.814-1.859s-1.533-.894-2.441-1.154c-.91-.257-1.922-.389-3.042-.389-2.158,0-4.04.528-5.647,1.587-1.61,1.062-2.848,2.603-3.715,4.63s-1.304,4.479-1.304,7.357c0,2.898.425,5.365,1.274,7.403.848,2.037,2.072,3.596,3.67,4.675s3.516,1.618,5.753,1.618c2.019,0,3.721-.331,5.11-.99,1.388-.66,2.441-1.601,3.161-2.831s1.078-2.671,1.078-4.329l2.008.269h-10.937v-7.76h19.149v5.873c0,3.975-.84,7.385-2.518,10.233s-4,5.03-6.967,6.547-6.359,2.278-10.174,2.278h-.002v.004h.001ZM663.696,491.634c-2.079,0-3.945-.429-5.603-1.291-1.659-.859-2.974-2.022-3.939-3.489-.97-1.469-1.455-3.091-1.455-4.869h5.753c0,1.198.504,2.212,1.514,3.04,1.009.828,2.253,1.244,3.731,1.244s2.712-.415,3.7-1.244,1.483-1.842,1.483-3.04h5.844c0,1.778-.483,3.401-1.453,4.869-.97,1.469-2.283,2.634-3.942,3.489-1.659.861-3.535,1.291-5.634,1.291h.001Z"/>
    <path class="st0" d="M708.675,540.748c-3.756,0-7.046-.674-9.873-2.022s-5.026-3.255-6.591-5.723c-1.569-2.466-2.353-5.359-2.353-8.676v-28.795h10.578v27.929c0,1.558.349,2.947,1.048,4.165.699,1.22,1.664,2.172,2.892,2.863s2.662,1.033,4.3,1.033,3.082-.344,4.33-1.033c1.249-.69,2.217-1.642,2.908-2.863.69-1.216,1.033-2.605,1.033-4.165v-27.929h10.578v28.795c0,3.317-.79,6.21-2.367,8.676-1.577,2.467-3.781,4.375-6.607,5.723-2.827,1.348-6.119,2.022-9.874,2.022h-.002.001ZM701.872,491.276c-1.339,0-2.482-.461-3.431-1.377-.95-.919-1.424-2.028-1.424-3.327s.474-2.407,1.424-3.325c.949-.919,2.092-1.377,3.431-1.377,1.36,0,2.512.458,3.462,1.377.949.918,1.421,2.028,1.421,3.325s-.474,2.409-1.421,3.327c-.95.918-2.103,1.377-3.462,1.377ZM715.447,491.276c-1.339,0-2.487-.461-3.446-1.377-.96-.919-1.438-2.028-1.438-3.327s.479-2.407,1.438-3.325c.96-.919,2.109-1.377,3.446-1.377s2.482.458,3.432,1.377c.949.918,1.421,2.028,1.421,3.325s-.474,2.409-1.421,3.327c-.95.918-2.093,1.377-3.432,1.377Z"/>
  </g>
</svg>